<svg xmlns="http://www.w3.org/2000/svg" width="157" height="81" viewBox="0 0 157 81" fill="none"
      class="mainContSvgEllipse">
      <ellipse cx="4" cy="4.16793" rx="4" ry="4.16793" fill="#45AAEE" fill-opacity="0.4" />
      <ellipse cx="4" cy="18.7558" rx="4" ry="4.16793" fill="#45AAEE" fill-opacity="0.4" />
      <ellipse cx="4" cy="33.3435" rx="4" ry="4.16793" fill="#45AAEE" fill-opacity="0.4" />
      <ellipse cx="4" cy="47.9311" rx="4" ry="4.16793" fill="#45AAEE" fill-opacity="0.4" />
      <ellipse cx="19" cy="4.16793" rx="4" ry="4.16793" fill="#45AAEE" fill-opacity="0.4" />
      <ellipse cx="19" cy="18.7558" rx="4" ry="4.16793" fill="#45AAEE" fill-opacity="0.4" />
      <ellipse cx="19" cy="33.3435" rx="4" ry="4.16793" fill="#45AAEE" fill-opacity="0.4" />
      <ellipse cx="19" cy="47.9311" rx="4" ry="4.16793" fill="#45AAEE" fill-opacity="0.4" />
      <ellipse cx="34" cy="4.16793" rx="4" ry="4.16793" fill="#45AAEE" fill-opacity="0.4" />
      <ellipse cx="34" cy="18.7558" rx="4" ry="4.16793" fill="#45AAEE" fill-opacity="0.4" />
      <ellipse cx="34" cy="33.3435" rx="4" ry="4.16793" fill="#45AAEE" fill-opacity="0.4" />
      <ellipse cx="34" cy="47.9311" rx="4" ry="4.16793" fill="#45AAEE" fill-opacity="0.4" />
      <ellipse cx="49" cy="4.16793" rx="4" ry="4.16793" fill="#45AAEE" fill-opacity="0.4" />
      <ellipse cx="49" cy="18.7558" rx="4" ry="4.16793" fill="#45AAEE" fill-opacity="0.4" />
      <ellipse cx="49" cy="33.3435" rx="4" ry="4.16793" fill="#45AAEE" fill-opacity="0.4" />
      <ellipse cx="49" cy="47.9311" rx="4" ry="4.16793" fill="#45AAEE" fill-opacity="0.4" />
      <ellipse cx="64" cy="4.16793" rx="4" ry="4.16793" fill="#45AAEE" fill-opacity="0.4" />
      <ellipse cx="109" cy="4.16793" rx="4" ry="4.16793" fill="#45AAEE" fill-opacity="0.4" />
      <ellipse cx="64" cy="18.7558" rx="4" ry="4.16793" fill="#45AAEE" fill-opacity="0.4" />
      <ellipse cx="109" cy="18.7558" rx="4" ry="4.16793" fill="#45AAEE" fill-opacity="0.4" />
      <ellipse cx="64" cy="33.3435" rx="4" ry="4.16793" fill="#45AAEE" fill-opacity="0.4" />
      <ellipse cx="109" cy="33.3435" rx="4" ry="4.16793" fill="#45AAEE" fill-opacity="0.4" />
      <ellipse cx="64" cy="47.9311" rx="4" ry="4.16793" fill="#45AAEE" fill-opacity="0.4" />
      <ellipse cx="109" cy="47.9311" rx="4" ry="4.16793" fill="#45AAEE" fill-opacity="0.4" />
      <ellipse cx="79" cy="4.16793" rx="4" ry="4.16793" fill="#45AAEE" fill-opacity="0.4" />
      <ellipse cx="124" cy="4.16793" rx="4" ry="4.16793" fill="#45AAEE" fill-opacity="0.4" />
      <ellipse cx="79" cy="18.7558" rx="4" ry="4.16793" fill="#45AAEE" fill-opacity="0.4" />
      <ellipse cx="124" cy="18.7558" rx="4" ry="4.16793" fill="#45AAEE" fill-opacity="0.4" />
      <ellipse cx="79" cy="33.3435" rx="4" ry="4.16793" fill="#45AAEE" fill-opacity="0.4" />
      <ellipse cx="124" cy="33.3435" rx="4" ry="4.16793" fill="#45AAEE" fill-opacity="0.4" />
      <ellipse cx="79" cy="47.9311" rx="4" ry="4.16793" fill="#45AAEE" fill-opacity="0.4" />
      <ellipse cx="124" cy="47.9311" rx="4" ry="4.16793" fill="#45AAEE" fill-opacity="0.4" />
      <ellipse cx="94" cy="4.16793" rx="4" ry="4.16793" fill="#45AAEE" fill-opacity="0.4" />
      <ellipse cx="139" cy="4.16793" rx="4" ry="4.16793" fill="#45AAEE" fill-opacity="0.4" />
      <ellipse cx="94" cy="18.7558" rx="4" ry="4.16793" fill="#45AAEE" fill-opacity="0.4" />
      <ellipse cx="139" cy="18.7558" rx="4" ry="4.16793" fill="#45AAEE" fill-opacity="0.4" />
      <ellipse cx="94" cy="33.3435" rx="4" ry="4.16793" fill="#45AAEE" fill-opacity="0.4" />
      <ellipse cx="139" cy="33.3435" rx="4" ry="4.16793" fill="#45AAEE" fill-opacity="0.4" />
      <ellipse cx="94" cy="47.9311" rx="4" ry="4.16793" fill="#45AAEE" fill-opacity="0.4" />
      <ellipse cx="139" cy="47.9311" rx="4" ry="4.16793" fill="#45AAEE" fill-opacity="0.4" />
      <ellipse cx="4" cy="61.477" rx="4" ry="4.16793" fill="#45AAEE" fill-opacity="0.4" />
      <ellipse cx="4" cy="76.0647" rx="4" ry="4.16793" fill="#45AAEE" fill-opacity="0.4" />
      <ellipse cx="154" cy="4.16793" rx="4" ry="4.16793" fill="#45AAEE" fill-opacity="0.4" />
      <ellipse cx="154" cy="18.7558" rx="4" ry="4.16793" fill="#45AAEE" fill-opacity="0.4" />
      <ellipse cx="19" cy="61.477" rx="4" ry="4.16793" fill="#45AAEE" fill-opacity="0.4" />
      <ellipse cx="19" cy="76.0647" rx="4" ry="4.16793" fill="#45AAEE" fill-opacity="0.4" />
      <ellipse cx="34" cy="61.477" rx="4" ry="4.16793" fill="#45AAEE" fill-opacity="0.4" />
      <ellipse cx="34" cy="76.0647" rx="4" ry="4.16793" fill="#45AAEE" fill-opacity="0.4" />
      <ellipse cx="49" cy="61.477" rx="4" ry="4.16793" fill="#45AAEE" fill-opacity="0.4" />
      <ellipse cx="49" cy="76.0647" rx="4" ry="4.16793" fill="#45AAEE" fill-opacity="0.4" />
      <ellipse cx="64" cy="61.477" rx="4" ry="4.16793" fill="#45AAEE" fill-opacity="0.4" />
      <ellipse cx="109" cy="61.477" rx="4" ry="4.16793" fill="#45AAEE" fill-opacity="0.4" />
      <ellipse cx="64" cy="76.0647" rx="4" ry="4.16793" fill="#45AAEE" fill-opacity="0.4" />
      <ellipse cx="109" cy="76.0647" rx="4" ry="4.16793" fill="#45AAEE" fill-opacity="0.4" />
      <ellipse cx="79" cy="61.477" rx="4" ry="4.16793" fill="#45AAEE" fill-opacity="0.4" />
      <ellipse cx="124" cy="61.477" rx="4" ry="4.16793" fill="#45AAEE" fill-opacity="0.4" />
      <ellipse cx="79" cy="76.0647" rx="4" ry="4.16793" fill="#45AAEE" fill-opacity="0.4" />
      <ellipse cx="124" cy="76.0647" rx="4" ry="4.16793" fill="#45AAEE" fill-opacity="0.4" />
      <ellipse cx="154" cy="33.3435" rx="4" ry="4.16793" fill="#45AAEE" fill-opacity="0.4" />
      <ellipse cx="154" cy="61.477" rx="4" ry="4.16793" fill="#45AAEE" fill-opacity="0.4" />
      <ellipse cx="154" cy="47.9311" rx="4" ry="4.16793" fill="#45AAEE" fill-opacity="0.4" />
      <ellipse cx="154" cy="76.0647" rx="4" ry="4.16793" fill="#45AAEE" fill-opacity="0.4" />
      <ellipse cx="94" cy="61.477" rx="4" ry="4.16793" fill="#45AAEE" fill-opacity="0.4" />
      <ellipse cx="139" cy="61.477" rx="4" ry="4.16793" fill="#45AAEE" fill-opacity="0.4" />
      <ellipse cx="94" cy="76.0647" rx="4" ry="4.16793" fill="#45AAEE" fill-opacity="0.4" />
      <ellipse cx="139" cy="76.0647" rx="4" ry="4.16793" fill="#45AAEE" fill-opacity="0.4" />
    </svg>