<svg xmlns="http://www.w3.org/2000/svg" width="74" height="48" fill="none" xmlns:v="https://vecta.io/nano"><path d="M68.287 22.383l.779-.288c.011-.005.023-.009.035-.012l.289-.077c.227-.06.191-.15-.033-.081l-.46.144c-.018.006-.042-.016-.038-.034.001-.007.007-.014.013-.016a.35.35 0 0 0 .07-.042c.019-.014.017-.046-.005-.057s-.033-.032-.022-.049c.02-.03.049-.053.08-.073.075-.048.04-.128-.051-.117a1.92 1.92 0 0 0-.261.049c-.205.053-.22.026-.021-.044l1.031-.402c.035-.017.016-.061-.022-.049l-.028.009c-.028.009-.067-.036-.06-.064.003-.01-.001-.021-.01-.026-.026-.016-.031-.056-.003-.065l.571-.199c.174-.066.137-.238-.044-.19-.223.059-.441.162-.653.192-.041.006-.083.013-.122.026l-.297.09a.76.76 0 0 0-.278.126c-.073.052-.152.076-.247.073-.107-.004-.135-.127-.039-.17.128-.057.263-.092.374-.211.009-.01-.001-.025-.015-.022s-.02-.012-.008-.019l.225-.135c.014-.01.021-.034.016-.05-.012-.045.002-.125.046-.139l1.394-.46c.203-.069.21-.161.012-.081s-.25.051-.045-.023c.841-.303 1.602-.586 1.003-.428-.016.004-.036-.007-.037-.023s-.019-.029-.036-.024l-2.396.82c-.014.005-.031-.003-.036-.017s.001-.029.009-.035 0-.019-.015-.014l-.361.118c-.11.036-.189.039-.228.052l.351-.127c-.097.032-.195.041-.292.073l.276-.09c.124-.041.197-.164.07-.134-.177.04-.315-.102-.492-.062l-.097.024c-.365.099-.399.04-.035-.061.15-.042.295-.089.428-.151-.084.027-.176.035-.264.052l.634-.232c.037-.015.014-.065-.025-.057-.017.004-.032-.006-.044-.019l-.019-.02-1.119.321-.172-.029c-.009-.002-.018 0-.026.004-.416.223-.988.358-1.472.45-.02.004-.038.018-.044.038s-.02.036-.041.043l-.464.13c-.013.004-.025.003-.035-.005-.024-.019-.021-.057.007-.066l1.52-.453c.149-.056.36-.102.5-.17.078-.038.036-.098-.047-.075l-.584.151c-.023-.023-.003-.068-.035-.061s-.042-.028-.01-.038l.956-.298c.048-.018.103-.004.143.031l.023.019c.05.038.111.001.098-.058a.52.52 0 0 0-.016-.059c-.005-.016.003-.032.018-.038.037-.015.014-.065-.02-.058-.015.003-.03-.005-.035-.019l-.017-.04c-.021-.045-.002-.099.045-.115l.104-.034c.155-.052.122-.211-.041-.184l-.257.053c-.009.002-.018-.003-.021-.011s-.014-.014-.021-.008-.016.019-.022.03-.014.013-.024.016l-.58.145c-.117.018-.22.117-.335.14a.44.44 0 0 1-.087.008c-.151 0-.187-.134-.05-.189.036-.015.071-.034.1-.066s.009-.076-.031-.094c-.011-.005-.019-.015-.01-.022s.027-.015.034-.022c.015-.014-.029-.017-.05-.014-.082.012-.177.058-.27.084-.104.028-.113-.048-.024-.106.018-.012.038-.024.059-.031l.187-.076c.039-.017.09-.019.131-.005s.118-.016.136-.044c.015-.019.018-.034.011-.046s-.005-.025.006-.029c-.022-.004-.041.002-.061.009-.029 0-.053.003-.076.009-.07.017-.132.059-.2.081l-.187.061c.024-.008.012-.034-.012-.026l-.275.081c-.069.015-.083-.046-.016-.064l.336-.087c.121-.035.103-.135-.012-.086-.077.033-.153.071-.227.065-.015-.001-.027-.012-.032-.026s-.001-.036.012-.05c.037-.044-.005-.102-.054-.093l-.224.045c-.056.012-.12-.006-.139-.059-.011-.03-.016-.062-.018-.096-.001-.018.011-.035.028-.041l.024-.008c.046-.015.029-.054-.017-.04-.022.007-.046-.006-.056-.027-.127-.277-.439-.123-.455.102-.012.061-.072.092-.132.112l-.174.057c.037-.111.032-.258-.067-.477-.009-.019-.002-.041.018-.047s.034-.036.02-.057l-.019-.029c-.022-.032-.014-.077.021-.093.359-.162.811-.183 1.173-.326.118-.047.074-.167-.051-.138-.163.039-.32.103-.479.15-.037.011-.042.009-.008-.01.026-.015.003-.043-.025-.032-.165.07-.24.095-.457.166.034-.011.038.001.001.003-.074.003-.13-.017-.061-.093.029-.019.043-.026.058-.032.307-.13.219-.242-.107-.158l-.649.175c-.028.008-.058.002-.082-.017-.033-.026-.044-.069-.029-.106.011-.026.019-.05.024-.071.021-.083.008-.201-.019-.285a.31.31 0 0 0-.034-.072c-.009-.019-.015-.028-.022-.036-.013-.015-.011-.04.005-.05.022-.013.008-.052-.019-.05l-.022.001c-.033.002-.046-.038-.017-.051a1.14 1.14 0 0 1 .163-.059.07.07 0 0 0 .051-.053l.011-.055c.011-.055.051-.098.102-.122l.027-.013c.045-.022.073-.065.071-.115-.003-.083-.081-.152-.165-.139-.266.041-.504.102-.766.178a.76.76 0 0 0-.226.088c-.02.011-.046.01-.068.017s-.039.008-.052-.002c-.031-.024-.027-.073.009-.086l.02-.008c.054-.021.024-.078-.035-.072l-.076.006c-.044.003-.072-.046-.051-.083.005-.01.014-.019.024-.024s.023-.015.031-.023c.062-.059.09-.157.175-.18l.023-.006c.174-.05.128-.226-.052-.197-.284.046-.556.146-.834.245l-.11.036c-.106.026-.251.079-.404.102-.02.003-.027-.023-.01-.034s.005-.024-.01-.023c-.075.006-.149.039-.225.064-.009-.017-.005-.021-.001-.023l.153-.055c.014-.006.007-.029-.009-.027s-.024-.015-.012-.022c.147-.089.325-.139.439-.187l.11-.036c.279-.084.559-.16.811-.289.164-.084.078-.245-.097-.182-.093.033-.2-.025-.3-.032-.008-.001-.017-.001-.026 0-.061-.014-.071-.078-.033-.101l.067-.039c.053-.03.034-.095-.026-.08l-.034.009c-.036.011-.074-.025-.066-.061.003-.015.014-.026.028-.031.03-.013.05-.024.07-.027.081-.009.164-.028.24-.063.268-.088.494-.187.727-.312.069-.038.083-.129.029-.19-.038-.044-.098-.058-.154-.046l-.03.006c-.05.009-.103-.006-.144-.037l-.06-.047c-.02-.015-.046-.02-.069-.012l-.147.044c-.037.01-.056-.033-.025-.053s.014-.052-.018-.046c-.024.004-.044-.018-.046-.041l-.004-.032c-.008-.031-.018-.059-.031-.084-.04-.075-.098-.17-.166-.223a.49.49 0 0 0-.074-.046c-.038-.02-.061-.06-.053-.099a.08.08 0 0 1 .049-.058l.623-.246c.31-.122.302-.258-.025-.18l-.052.01c-.165-.026-.049-.108.042-.151-.002.006 0 .021.009.018l.389-.111c.031-.007.032-.046.001-.044-.042.002-.041.001-.002-.014l.45-.155c.12-.048.073-.166-.052-.131-.376.103-.74.347-1.122.427-.037.008-.074-.019-.078-.056l-.004-.038c-.002-.024-.025-.041-.049-.034s-.045-.004-.051-.024c-.076-.227-.174-.343-.279-.398.071-.034.139-.056.208-.078.037-.012.075-.008.111.008.021.009.042.023.06.037.173.138.493.063.393-.22-.006-.016.002-.034.019-.04.035-.012.019-.051-.016-.04l-.022.007c-.012.004-.027 0-.036-.01-.028-.032-.053-.068-.067-.109s.018-.084.062-.1a2.04 2.04 0 0 0 .215-.097c.039-.02.026-.099-.017-.11-.024-.005-.036-.011-.04-.026s-.006-.039.007-.048c.06-.044.149-.056.232-.075.12-.028.058-.122-.057-.081l-.333.133c-.063.024-.094-.032-.033-.061.087-.041.178-.07.27-.1.023-.008.017-.031-.007-.024l.187-.061c.068-.022.14-.024.206-.051.044-.018.089-.046.134-.06l.099-.033-.069.021c-.028.007-.077-.025-.102-.041-.044-.013-.12.023-.141.041-.034.029-.059.066-.103.078l-.206.049c-.017.004-.035.004-.052.005-.113.004-.159-.058-.054-.095.088-.031.19-.05.258-.091.019-.011.048-.04.026-.042-.014-.001-.041.006-.051.002.019-.056.001-.108-.047-.115-.038-.006-.073-.002-.107.005-.145.031-.209-.087-.091-.171.026-.019.053-.034.08-.045.1-.04.234-.024.33-.072.181-.092.379-.161.565-.239.006-.003.013-.003.02-.002l.038.006c.01.002.017-.007.014-.016l.248-.126c.152-.078.065-.227-.097-.172l-.113.04c-.044.016-.093-.009-.106-.054l-.007-.022c-.008-.028.005-.057.033-.067.052-.018.034-.071-.02-.059-.037.009-.069-.006-.083-.033l-.016-.027c-.032-.052-.107-.047-.118.011l-.005.032c-.005.046-.035.085-.08.098l-.995.343c-.029.008-.046-.025-.019-.038s.028-.091.055-.105c.096-.049.385-.146.564-.215.063-.024.056-.085-.013-.077-.16.019-.377.119-.545.165l-1.489.533c-.028.01-.058-.011-.053-.039.002-.012.012-.026.025-.03l.453-.171a.07.07 0 0 1 .057.008c.02.012.044.014.064.005.437-.209.971-.436 1.446-.506.009-.001.018-.006.024-.013.04-.05.073-.082.105-.112l1.064-.388c.019-.007.031-.025.03-.045s.005-.037.019-.042c.038-.014.018-.071-.022-.061l-.645.188c.039-.013.02-.06-.02-.047l-.861.319c-.148.044-.172-.04-.025-.087l.786-.27c.165-.072.175-.266.339-.34.117-.052-.022-.099-.144-.059l-.279.092c.097-.032.19-.074.276-.114l-.359.106c.039-.013.102-.056.212-.092l.394-.129c-.007.002-.016-.001-.026-.004s-.032-.013-.037-.027.002-.029.016-.034l2.425-.76c.016-.005.024-.021.013-.034s-.006-.038.012-.045c.549-.217-.184-.01-1.016.236-.21.062-.189.016.023-.039.206-.053.13-.133-.072-.069l-1.453.48c-.044.015-.113-.046-.136-.086-.011-.018-.022-.023-.033-.023a2.88 2.88 0 0 0-.247.023c-.01.001-.016-.016-.007-.021-.153-.046-.272-.013-.392.017-.138.035-.224-.112-.1-.178.053-.028.111-.043.177-.044a.79.79 0 0 0 .303-.064c.083-.037.183-.068.287-.101.043-.014.082-.034.121-.056.184-.104.421-.15.632-.231.174-.066.084-.22-.096-.17l-.581.179c-.027.009-.052-.024-.042-.05.004-.011-.002-.023-.012-.029-.031-.018-.033-.076-.002-.087.05-.017.036-.058-.004-.05-.374.079-.746.196-1.119.31-.201.061-.211.023-.015-.05a1.88 1.88 0 0 0 .334-.159c.062-.038.039-.111-.035-.103-.047.005-.093.009-.137-.002-.023-.005-.036-.045-.028-.066s-.006-.04-.025-.04a.34.34 0 0 0-.093.012c-.01.003-.021 0-.03-.005-.02-.013-.016-.037.005-.045l.288-.096c.228-.077.196-.161-.029-.076l-.124.047-.819.234 5.005-1.813-.85.267a.91.91 0 0 1-.143.038c-.013.018-.017.026-.021.027l-.448.147c-.076.025-.155.037-.234.052-.069.013-.13.033-.189.053l-1.74.582c.019-.006.049-.005.082-.015l-2.091.674c-.026.008-.052.017-.081.015-.021-.004-.023-.027-.004-.035.048-.018.102-.043.115-.071s-.014-.068.013-.078l2.193-.738c.053-.017.155-.144.205-.169.776-.224 1.624-.48 2.338-.869.097-.053.193-.149.092-.202-.27-.142-.306.074-.077-.107a.56.56 0 0 0 .069-.064l.03-.012c-.015-.006-.025-.014-.026-.024-.032-.294-.414-.009-.613.05-.055.016-.124.02-.173-.013-.06-.041.346-.125.567-.189.089-.026.169-.109.075-.124-.257-.04-.528-.078-.773-.012l-.841.265c-.158.053-.207-.024-.049-.079.184-.064.167-.146-.022-.097l-.287.075.324-.106c.014-.005.013-.029.014-.044l.171-.067c.058-.023.041-.104-.023-.109-.009-.001-.02 0-.028.003l-.024.01c-.067.03-.15.032-.222.048-.102.022-.24.095-.382.175a.85.85 0 0 1-.167.073c-.316.097-.65.168-.956.228-.026.005-.047.022-.058.045s-.027.035-.048.042l-.566.152c-.012.003-.026 0-.037-.008-.028-.02-.024-.064.008-.073l1.524-.456c.081-.024.066-.093-.015-.072-.234.061-.46.176-.704.208l.6-.201c.037-.012.015-.051-.023-.039l-.072.024c-.057.019-.083-.035-.028-.058.315-.132.663-.223 1.003-.32.193-.055.159-.131-.03-.067-.307.104-.614.201-.936.258.216-.065.421-.146.623-.229.068-.028.039-.09-.034-.074-.065.014-.074-.046-.011-.064l1.029-.286c.251-.073.198-.281-.055-.215l-.883.225c-.107.017-.195.102-.295.139-.043.016-.094.024-.148.027-.156.008-.192-.129-.05-.186a.37.37 0 0 0 .117-.071c.034-.032.013-.085-.033-.101-.001-.024.024-.034.037-.043.02-.014-.026-.02-.051-.016-.144.019-.322.126-.476.125-.05 0-.074-.042-.028-.06.064-.026.058-.071-.009-.053l-.888.261c-.026.008-.052.012-.079.015-.166.014-.308.032-.522.124l-.09.03c.449-.18.988-.257 1.443-.397.081-.025.062-.072-.021-.054-.075.016-.093-.049-.019-.069l.242-.062c.135-.034.104-.141-.032-.109-.276.064-.537.17-.814.248-.048.013-.079-.056-.052-.097.007-.011.02-.02.033-.021l.149-.013c.294-.026.218-.169-.063-.09l-1.06.315c-.134.037-.203-.101-.078-.16.05-.016.073.067.124.084.009.003.02.005.033.007s.023-.001.033-.007c.381-.203.764-.363 1.154-.525l.351-.127-.026.008.992-.363c.106-.039.084-.104-.021-.063s-.127-.017-.021-.055l.182-.062c.154-.051.132-.103-.019-.045l-.841.304c-.017.005-.034-.012-.029-.028s-.01-.032-.026-.029c-.718.161-1.494.61-2.214.708a1.9 1.9 0 0 0-.305.062c-.21.065-.439.135-.615.242-.09.055-.182.113-.284.146a.99.99 0 0 1-.132.032c-.223.04-.431.119-.644.199l-.037.012c-.017.006-.041-.004-.058-.012-.009-.004-.013-.002-.022-.002-.138.021-.135.032-.017-.009l.139-.048c.138-.048.116-.107-.023-.061.044-.014.027-.057-.019-.064l-.027-.005c-.063-.011-.081-.099-.025-.126a3.75 3.75 0 0 1 .407-.163c.045-.016.031-.058-.015-.046-.006.002-.014.002-.02 0-.098-.021-.175-.004-.255.041-.019.011-.012.04.009.033l-1.435.506c-.011.003-.024-.005-.024-.016-.001-.017-.017-.028-.033-.023l-.469.154a.11.11 0 0 1-.023.005c-.112.012-.133-.035-.027-.071a.51.51 0 0 0 .18-.092c.011-.01.022-.021.035-.028.123-.064.355-.07.493-.155.069-.043.131-.102.209-.128l.117-.038c.012-.004.023-.013.026-.026.008-.032-.025-.062-.059-.056-.324.053-.632.143-.933.244-.158.053-.363.066-.512.138-.052.036-.09.075-.139.092l-.303.097c-.08.025-.113-.033-.035-.061a2.31 2.31 0 0 1 .181-.055c.067-.018.056-.04-.012-.029a.76.76 0 0 1-.166.01c-.015-.001-.019-.023-.014-.036.034-.021.058-.031.083-.04.184-.068.162-.131-.028-.076-.043.013-.077.011-.108.018-.018.004-.037.01-.055.02-.027.015-.053.031-.083.041l-.4.12c-.085.024-.125-.042-.042-.07.093-.032.197-.054.287-.094.022-.01.002-.037-.022-.035s-.024-.021-.01-.034l.023-.025c.016-.018.007-.045-.017-.052-.018-.005-.036-.009-.053-.01-.091-.01-.096-.019-.01-.045l.235-.073c.025-.008.057-.023.05-.048s-.069-.026-.176.009l-.437.149c-.015.006-.035-.023-.022-.033l.437-.155.019-.006c.088-.035.145-.09.216-.123.26-.121.557-.213.84-.327.295-.119.179-.359-.115-.238-.028.009-.052-.046-.028-.062a1.41 1.41 0 0 0 .121-.092l.057-.022c-.006.002-.023-.004-.03-.002.022-.007.004-.045-.02-.04-.029.005-.047-.031-.019-.041l1.414-.433c.126-.041.083-.17-.046-.139l-.079.02c-.098.026-.103.022-.016-.026.035-.019.065-.047.087-.087.006-.011-.008-.023-.02-.022-.02.001-.151-.024-.17-.019a.24.24 0 0 0-.047.016c-.016.008-.042.002-.048-.015l-.031-.073c-.013-.028-.046-.042-.076-.034l-.512.148c-.012.004-.041-.023-.047-.035-.313.055-.625.111-.874.221l-.269.116-.171.069a2.8 2.8 0 0 1-.429.138l-.533.126c-.024.008-.03-.019-.007-.028.085-.032.235-.079.411-.129.01-.003.02-.004.03-.004a1.24 1.24 0 0 0 .114-.011c.01-.001.016-.011.015-.02s.004-.017.012-.02c.594-.195 1.318-.433.915-.453.071-.044.135-.09.182-.141.015-.016.033-.029.054-.036l.139-.047c.053-.019.044-.085-.013-.086-.023-.001-.047.001-.069.004-.012.002-.023-.005-.022-.017s-.011-.022-.021-.019l.302-.121c.207-.085 1.172-.23 1.386-.299l.468-.166c.071-.028.058-.08-.016-.058-.084.025-.127-.045-.047-.08l.5-.207c.059-.024.059-.053 0-.032-.055.02-.088-.024-.039-.054.063-.037.146-.055.231-.071.209-.039.134-.146-.068-.084l-2.134.728c-.028-.015-.028-.059-.013-.064l1.596-.558-1.4.459c-.032.01-.071.007-.045-.013.05-.04.059-.065-.004-.048l-.915.207c-.016.004-.03-.002-.033-.017s.002-.034.015-.043c.05-.034.08-.085-.011-.105-.066-.023-.133.032-.203.031-.275-.003-.775.003-.653.334.022.015.023.046.009.051l-.084.028c-.028-.001-.044-.003-.066-.008-.05-.009-.1-.002-.143.021l-.113.06c-.08.042-.173.055-.265.046-.266-.028-.528-.036-.766.082-.027.014-.062-.005-.064-.035l-.012-.031c-.014-.035-.013-.088.023-.1l.43-.141c.085-.028.186.019.259.074l.032.022c.061.039.138-.004.124-.072-.017-.082.011-.175.091-.202l.118-.039c.035-.012.074-.007.11.006.189.07.391.008.587-.073a.05.05 0 0 0-.03-.095l-.045.01c-.057.012-.074-.041-.02-.06s.036-.075-.021-.059c-.309.087-.611.196-.908.309-.032-.009-.031-.024-.018-.029l.428-.149c.259-.09.238-.144-.022-.055l-.092.032c-.017.006-.036.002-.051-.008s-.041-.019-.062-.012l-1.463.479c-.025.008-.027-.004-.005-.019.016-.011-.001-.025-.02-.019l-.075.025c-.033.011-.051-.006-.027-.03.03-.029.074-.064.11-.089.007-.002.034.012.066.001l-.013.004c-.045.06-.035.066.006.055.027-.007.052-.02.076-.033.043-.024.105-.058.125-.081.009-.011-.011-.017-.004-.029s.016-.018.026-.021c-.026-.001.027-.02.056-.023.02-.002.046-.01.078-.021-.052.017-.098.017-.15.016-.012 0-.016-.019-.005-.023-.379.113.012-.062.058-.076l-.439.068-.027.003c-.072.016-.128.022-.148.018-.025-.02-.056-.02-.075-.016-.068.017-.142.05-.21.072-.019.006-.05-.015-.07-.016s-.064.012-.107.03c-.074.031-.313.252-.361.314l-.056.071c-.01.012-.024.021-.039.026l-.051.017c-.066.022-.13-.058-.096-.116s-.044-.162-.115-.138c-.122.042-.243.088-.307.132-.007.005-.014.011-.02.017-.261.278-.612.376-.969.471-.093.024-.231.014-.319.05-.053.022-.105.078-.16.097-.061.021-.121.045-.18.075-.016.008-.037.005-.049-.009s-.028-.017-.043-.012l-.488.16c-.051.017-.107-.003-.161-.009-.023-.003-.047.002-.067.017-.01.008-.012.025-.011.038.001.019-.013.036-.031.043l-.27.088c-.229.074-.626-.122-.843-.02-.161.076-.319.204-.324.242-.008.077-.138.143-.289.198-.041.015-.395-.093-.436-.077-.007.003-.014.009-.017.017-.046.116.025.201.132.166-.055.018-.115.022-.174.028-.252.025-.573.234-.821.299-.008.002-.015-.002-.018-.009-.005-.014.018-.052.032-.056.215-.054 1.016-.345.75-.287l-.049.009c-.13.022-.352.148-.513.143-.019.022-.029.04-.046.045l-.185.061c-.014.005-.03-.003-.037-.017s-.026-.016-.038-.008c-.197.138-.418.227-.646.305-.049.017-.113-.097-.069-.124.292-.097.566-.21.817-.384.06-.051.14-.116.114-.192-.024-.07-.113-.134-.191-.116-.103.034-.164.186-.252.247-.081.059-.141.152-.223.186l-.165.068c-.067.028-.147.022-.209.059-.032.019-.067.041-.102.054l-.633.239c.103-.034.119-.05-.002-.023-.177.058-.27.048-.333.083.074-.093-.163-.023-.262.033-.017.009-.016.031.002.039.046.021.098.018.144.002.011-.004.023.01.016.018-.05.027-.096.026-.125.079-.007.013.001.029.014.036s.022.029.012.042c-.016.021-.032.038-.05.05s-.031.008-.047.006a.22.22 0 0 0-.191.072c-.038.016-.042.022-.036.027.006.018.004.021.003.022-.047.02-.069.035-.081.047-.019.018-.037.037-.06.05l-.034.021c-.016.01-.035.014-.055.011-.091-.015-.131.005-.211.083-.009.009-.001.026.012.026s.016.014.006.019l-.38.166c-.007.003-.015.005-.023.005a1.36 1.36 0 0 0-.135.016c.005.014.01.028.001.031l-.336.11c-.037.012-.08-.002-.119-.008a.23.23 0 0 0-.18.066c-.005.005-.014.009-.02.012-.012.005-.017.016-.03.02l-1.464.389c.052-.017.05-.039-.012-.031-.188.004-.394.129-.439.144.019-.006.2-.066.157-.028a.35.35 0 0 1-.11.046c-.055.015-.133.022-.187.042l-.06.019c-.022.005-.035-.015-.028-.036s.02-.029.037-.034c.047-.015.054-.079.092-.091.112-.034.257-.026.305-.145-.015-.012-.017-.019-.011-.021.038-.012.014-.016-.067-.001-.009.003-.02-.009-.017-.018.035-.1-.07-.262-.173-.207-.102.049-.189.36-.282.424-.16.111-.318.232-.506.237-.027.008-.034-.011-.014-.021.096-.05-.065.009-.172.036l-.026.002c-.13.005-.278-.118-.197-.213.053-.063.134-.101.216-.137.123-.054.074-.229-.027-.144l-.027.025c-.118.101-.838.469-.678.49.113.015.237.047.288.147l.012.03c.005.012.021.017.033.013.022-.007.035.017.017.031-.073.061-.171.103-.272.138-.11.038-.098.066.013.031l.137-.04-1.556.534c-.098.02-.155.039-.232.064.072-.047.082-.039-.014-.007-.074-.114-.291.13-.419.172l-.067.022c.089-.021.117-.023.086-.005-.139.092-.246.115-.389.162.013-.004.018-.029.037-.035-.235.089-.372.168-.602.232-.073.024-.063.006-.038-.015.012-.01.03-.013.039-.026.035-.048-.086-.095-.135-.061-.068.046-.117.145-.185.19-.032.021-.067.022-.088-.011-.004-.006-.012-.009-.03-.003-.185.035-.621.215-.458.127l.072-.035.076-.036c.037-.015.067-.082.027-.077-.03.007-.009-.012-.025-.009-.111.021-.267.092-.297.102l-.18.067c-.148.071-.28.17-.437.221-.132.043-.273.075-.383.146a.46.46 0 0 1-.106.055c.02-.007.013-.021-.008-.016l-.628.176c-.089.028-.115-.016-.025-.04l.079-.02c.067-.017.057-.042-.008-.019l-.022.008c-.048.017-.09-.027-.071-.073.016-.038-.021-.078-.059-.061-.085.038-.138.096-.209.13-.041.02-.07-.019-.048-.058.005-.01.016-.023.005-.021a.24.24 0 0 0-.041.011c-.162.053-.254.204-.417.252-.053.017-.027.031-.063.05-.019.01-.035.022-.039.029-.14.199-.477.049-.696.164-.108.057-.211.14-.297.184l-.142.047.142-.047c.022.057.006.113-.052.132l-.16.052.071-.023-.052.017-.045.015.013-.004-.123.04-.123.04.013-.004-.045.015-.052.017.071-.023-.16.052c-.058.019-.122-.012-.132-.072l.142-.047-.142.047c-.146.031-.387.004-.53.088-.111.066-.163.217-.293.238a.36.36 0 0 1-.111 0c-.05-.007-.097-.012-.147-.007-.024.002-.039.007-.028-.013.002-.004-.002-.007-.02-.004-.18.042-.351 0-.511.053-.071.023-.045.015-.035.023.045.034.054.074-.001.082-.076.011-.156-.002-.246.02-.036.009-.038.054-.005.073.043.024.041.09-.004.105-.062.021-.054.045-.001.024l.123-.048c.077-.028.089.025.011.052l-.723.269c.022-.007.024.003.012.007-.16-.008-.31.06-.461.11-.156.052-.327.057-.49.088-.036.007-.09.02-.186.048-.03.01-.195.045-.296.092-.003.002-.007.016-.009.019-.041.022.038.053.076.045l.074-.013c.313-.057-.062.066-.098.067-.177.015-.067-.024-.224.064-.027.015-.072.03-.055.057s-.023.04-.053.044c-.085.012-.199-.039-.287-.038-.063.001-.125.108-.062.122.013.003.027-.002.04-.004.033-.005.06.004-.013.037-.218.095-.383.102-.626.171.019-.006.04.01.053.005-.149.049-.245.081-.413.101-.033.003-.01-.012.07-.046l-.067.022c-.128.042-.438-.021-.442.11-.097.032-.09.03 0 0-.083.039-.14.057-.223.085-.497.209-1.108.375-1.579.506l.156-.052c.113-.038.099-.077-.014-.039-.108.036-.22.066-.325.061-.023-.001-.03-.027-.008-.034.012-.004.021-.018.017-.03l-.012-.03c-.042-.107.041-.203.119-.284.11-.114-.703.028-.863.018l-.037-.003c-.135-.006-.054.158.076.13.09-.019.181-.036.268-.018.125.027.104.195.003.265-.014.01-.036.022-.053.027-.124.041-.3.1-.047.05-.016.005-.029.012-.043.02l-.084.046c-.145.081-.331.085-.514.091-.121.004-.399-.198-.515-.169-.118.018-.082.201.01.26.009.006.009.022-.001.025-.037.012-.06.022-.071.03s.016.011.033.005c-.018.006-.011.026.006.034.111.05.211-.022.312-.063.038-.015.101.02.14.009.014-.004.036-.012.049-.004.023.014.028.044.003.053-.018.006-.04.011-.061.017-.055.014-.109.062-.163.078a1.07 1.07 0 0 1-.12.029c-.056.007.121-.063.141-.069-.045.015-.286.048-.438.143-.014.005-.069.058-.08.062l-1.303.517c-.001.001-.055.009-.056.009-.014-.004-.029-.007-.044-.008-.145-.01-.267.144-.402.188l-.208.068c.019-.006-.004-.032-.021-.022-.036.019-.062.04-.085.056a2.73 2.73 0 0 1-.385.092c-.006.001-.018-.021-.013-.024-.14-.032-.194-.029-.259.038-.017.017-.036.032-.061.035a.48.48 0 0 1-.042.004c-.022.001-.043-.004-.065-.009s-.046-.004-.107.01c-.008.002-.006-.014-.014-.017a.09.09 0 0 0-.033-.002c-.09-.015-.165.018-.217.066-.04.015-.065.012-.093.005-.015-.004-.031-.039-.027-.053.002-.008-.001-.019-.009-.023-.065-.031-.101-.001-.158.007-.016-.004-.015-.02-.005-.023.049-.015.091-.043.112-.088.007-.016-.006-.032-.024-.03-.11.013-.332.092-.241.126.009.003.018.003.026 0-.082.015-.141.069-.328.13-.11.036-.086.04.014.018l-.635.18c-.049.012-.104.006-.153.018-.061.015-.107.061-.168.078l-.196.046c-.086.019-.191-.016-.279-.017-.011 0-.023 0-.035.001-.101.007-.225-.061-.325-.049-.011.001-.028.005-.037.011-.103.061-.093.26.046.258.03.002.07.011.123.017.307-.009.6-.093.887-.176.073-.004.103.12.046.138-.227.071-.459.126-.709.135-.016.001-.026.02-.023.036s-.005.022-.018.026l-.217.071c-.022.007-.043-.013-.062-.001-.136.091-.391.117-.493.183-.308.141.539-.105.753-.199.009-.004.065.015.068.024-.245.097-.642.121-.853.257-.048.031-.096.063-.152.082.113-.037.109-.144-.013-.205-.007-.003-.017-.004-.024-.002-.044.012-.237.299-.28.312-.156.045-.303.071-.364.016-.033-.032-.245-.039-.422-.003-.237.049-.405.433-.634.509l-.263.087c-.022.007-.048-.008-.064-.025-.007-.007-.014-.008-.024-.008-.019.001-.036.006-.05.014-.058.031-.095.096-.159.116l-.462.152c-.017.005-.029.02-.03.037s-.011.033-.026.036l-.197.047c-.056.015-.135.002-.191.016-.093.023-.193.112-.282.147-.344.138-.686.274-1.089.197-.08-.008-.224.03-.361.074-.073.024-.065.142.009.17s.077.134.006.157l-.039.013a.09.09 0 0 1-.042.003c-.128-.021-.571-.08-.677-.03-.009.004-.017.009-.022.013-.023.019-.006.043-.036.05-.074.024-.162.034-.224.068-.013.007-.032.016-.043.024-.017.013.013.024-.003.038s-.062.04-.119.065c-.007.003-.013.007-.019.011l-.39.205c.052-.017.471-.12.097.026l.078-.025c-.08.038-.109.093-.193.121l.078-.025-.013.004.065-.021c-.013.004.013-.004.019-.006.021-.007.024.03.047.032.035.003.097-.005.142-.011a.37.37 0 0 0 .085-.019c.036-.014.04-.024-.022-.042-.009-.002-.018-.002-.026.001.041-.027.066-.038.097-.037l.12.006c.026.003.023.021-.002.029l-.087.028c-.019.006-.024.025-.003.023s.035.013.012.02l-1.479.485c-.016.005-.029.02-.034.036s-.019.038-.039.045l-.119.038c-.259.083-.239.133.021.053l.499-.154c-.025.008-.03.044-.056.051l-.829.259c-.054.02-.034.071.021.055s.077.034.029.057l-.07.032c-.063.029-.023.113.045.096.196-.051.381-.121.476-.279.018-.03.045-.056.08-.067l.119-.039c.081-.027.166.029.21.103.037.061.126.049.145-.017l.01-.041c.016-.084.06-.172.143-.2l.442-.145c.034-.011.076.026.081.061l.013.035c.01.025 0 .061-.026.066-.281.058-.486.237-.687.42-.039.036-.086.064-.139.076-.073.016-.154.025-.246.032-.012.001-.023.003-.034.008-.034.016-.056.031-.068.046s-.025.052-.048.059l-.048.016c-.018.006-.036-.012-.029-.029-.146-.372-.598.001-.788.146-.019.014-.04.025-.063.032-.047.015-.078.031-.084.06-.008.039.041.051.09.048.013-.001.026.007.032.019s.003.034-.012.041l-.839.366c-.055.021-.034.025.025.038.029.006.004.03-.024.039l-1.406.461c.553-.127 1.09-.31 1.621-.495.014-.005.042.028.042.043l-2.193.703c-.186.064-.168.193.007.108.088-.043.175-.086.259-.095.054-.006.056.046.006.064s-.036.04.021.026l.528-.126c.079-.018.1.061.024.088-.066.024-.046.069.022.052l.528-.158c.208-.069.967-.496 1.18-.549l.373-.096c-.018.006-.023.015-.015.022s.01.027-.001.034a.42.42 0 0 0-.053.036c-.043.034-.005.087.048.07l.146-.044c.018-.005.038-.004.057-.001.073.012.154.004.237-.013-.295.268.433.042 1.022-.162.011-.004.023-.001.029.01s.014.01.021.008c.037-.014.065-.034.087-.052.017-.013.036-.023.056-.03l.46-.151c-.045.015-.079.051-.123.07l-.64.272c-.141.046-.288.079-.436.116l-.214.044c-.284.056-.574.2-.862.334-.003.023-.006.061-.019.065l-.487.179c-.034.013-.051.05-.038.085l.022.064c.006.018-.012.037-.031.04s-.044.01-.064.019-.08.1-.098.111c-.012.007-.013.026.001.032.048.019.093.019.136.01.096-.021.094-.012.003.024l-.085.034c-.122.052-.064.18.063.139l1.71-.577c-.116.038-.226.091-.328.144-.005.003.001.029.007.03.005.017.008.021.011.02l.039-.013.171-.003c.026-.002.044.055.022.066l-.038.01c-.298.076-.223.323.075.247.349-.088.693-.215 1.03-.262l.114-.008c.014-.001.027-.003.04-.008a2.19 2.19 0 0 0 .44-.133c.026-.001.031.034.013.04l-.444.136c-.114.037-.162.075-.138.1.016.016.042.012.063.005l.244-.081c.072-.024.078-.01.022.04-.014.013-.028.027-.04.044s0 .036.02.04l.027.005c.019.004.033.03.017.04s-.014.044.006.04c.109-.022.211-.074.313-.105.084-.025.098.053.016.083l-.424.15a.39.39 0 0 1-.051.012c-.033.006-.065.016-.09.028-.018.009-.035.018-.054.024-.206.068-.177.134.033.077l.053-.014c.026-.009.04.028.021.046a.45.45 0 0 1-.056.044c-.076.05-.069.077.018.045l.06-.021c.085-.029.1.032.015.061l-.286.096c-.038.012-.07.015-.11.01-.021-.003-.052-.004-.072 0l-.042.01c-.12.031-.229.117-.346.155-.328.107-.659.217-.97.377-.026.014-.029.045-.005.064.014.011.034.018.05.013l.134-.044c.063-.021.133-.011.2-.01.174.002.368-.148.514-.172.015-.002.031-.001.047.001a.53.53 0 0 0 .199-.033c.107-.034.128.022.028.072l-.499.165c-.014.005-.021.019-.01.029s.01.03-.006.036c-.452.178-.964.291-1.448.438.021-.007.006-.033-.016-.03-.095.012-.163.041-.223.113-.005.006-.013.012-.021.014-.052.017-.029.069.023.053l.518-.132c.032-.006.055.033.035.057-.036.043-.074.089-.119.128-.007.006.002.024.011.023-.159.067-.324.118-.487.169-.09.028-.066.084.024.056l.69-.212c.142-.043.141-.048.006.013-.019.009-.025.012-.027.023-.004.017-.018.033-.035.038l-.039.013c-.221.062-.436.122-.636.22-.04.02-.081.038-.125.052-.102.033-.212.042-.32.052-.197.018-.406.088-.602.156a2.44 2.44 0 0 0-.357.166c-.62.334-1.513.441-2.164.717-.017.007-.023.026-.005.035s.02.034.001.041c-.265.095-.545.171-.825.248-.144.04-.127.087.015.042l.136-.042c.106-.031.128.023.021.052s-.078.092.027.061l1.032-.3-.026.009c.12-.028.243-.068.359-.106a10.62 10.62 0 0 1 1.255-.265c.011-.002.022-.006.03-.014s.016-.017.021-.024c.028-.043-.013-.121.037-.137.14-.028.182.119.05.169l-1.035.372c-.27.101-.229.255.014.105l.122-.075c.011-.007.027-.007.04-.003.049.016.073.087.027.105l-.787.276c-.125.053-.077.146.048.095l.216-.086c.071-.026.102.036.033.067-.077.035-.058.086.021.059.45-.156.92-.411 1.393-.532l-.09.03c-.238.056-.356.124-.496.212-.018.011-.037.021-.057.028l-.86.315c-.059.022-.033.055.029.042.041-.008.049.032.018.059-.119.1-.35.118-.477.195-.014.008-.038.019-.03.033.005.008.038-.001.06-.002.014-.001.015.012.008.024-.022.036-.004.084.04.089.056.006.107-.003.157-.017.15-.043.215.088.089.174-.044.03-.09.055-.135.068-.107.031-.238.018-.335.068-.249.128-.522.218-.788.323-.249.098-.148.286.103.192l.962-.366c.063-.022.1.029.04.057-.068.031-.05.099.023.08l.628-.182c-.288.143-.594.246-.902.344-.191.061-.164.139.023.069l1.041-.346c.052-.012.068.041.017.058l-.116.038c-.03.01-.019.052.01.043.173-.08.384-.137.601-.197-.209.12-.464.163-.687.252-.078.031-.041.093.038.065l1.495-.533c.036-.013.072.021.058.056-.005.012-.014.019-.027.023l-.54.209a.09.09 0 0 1-.07-.003.09.09 0 0 0-.073-.002l-.882.373a1.02 1.02 0 0 1-.213.055c-.178.026-.348.05-.434.101-.043.025-.079.066-.128.077-.018.004-.036.006-.055.007s-.036.011-.046.022c-.036.038.003.096.055.084l.174-.048c.026.016.039.033.054.028l.328-.107-.238.095c-.173.069-.129.142.051.089.152-.044.168.043.018.093l-.868.299c-.232.091-.415.28-.588.452-.066.065.054.086.142.053.221-.082.605-.259.563-.176-.023.046-.066.083-.115.102-.191.074-.697.071-.515.321.006.008.003.02-.006.023.011.013.018.01.024.006l.148.005c.289-.011.25-.103.027.066-.009.007-.017.014-.025.022-.077.08.073.157.186.14.818-.122 1.653-.408 2.391-.682.057-.011.246.022.29.008l2.2-.703c.027-.008.042.037.067.051.039.012.15-.013.201-.03-.034.033-.055.051-.083.064-.021.01-.042.023-.065.031l-2.048.683c.019-.006.012-.019-.007-.014l-1.668.54c-.071.023-.147.048-.224.09a.78.78 0 0 1-.131.06l-.485.159c-.008.003-.015.002-.02-.005-.058.007-.099.021-.138.041-.015.007-.03.014-.045.019l-.874.287c.019-.006.036 0 .056-.007l5.124-1.507-.779.288c-.011.005-.023.009-.035.012l-.289.077c-.227.06-.19.15.033.081l.46-.144c.018-.006.042.016.038.034-.001.007-.007.014-.013.016-.025.01-.047.026-.07.042s-.017.046.005.057.033.032.022.049c-.02.03-.049.053-.08.073-.075.048-.04.128.051.117a1.92 1.92 0 0 0 .26-.049c.205-.053.22-.026.021.044l-1.031.402c-.035.017-.016.061.022.049l.028-.009c.028-.009.068.036.06.064-.003.01.001.021.01.026.026.016.031.056.003.065l-.571.199c-.174.066-.137.238.044.19.223-.059.441-.162.653-.191.041-.006.083-.013.122-.026l.297-.09a.76.76 0 0 0 .278-.126.38.38 0 0 1 .247-.073c.107.004.135.127.039.17-.128.057-.264.092-.374.21-.009.01.001.025.015.022s.02.012.008.019l-.225.135c-.014.009-.021.034-.016.05.012.045-.002.124-.047.139l-1.394.459c-.203.069-.21.161-.012.081s.25-.051.045.023c-.842.303-1.602.586-1.003.428.016-.004.036.007.038.023s.019.029.036.024l2.396-.82c.014-.005.031.003.036.017s-.001.029-.009.035 0 .019.015.014l.361-.118c.11-.036.189-.039.228-.052l-.351.127c.097-.032.195-.041.292-.073l-.276.09c-.124.041-.197.164-.07.134.177-.041.315.102.492.062l.097-.024c.365-.099.399-.04.035.061-.15.042-.295.089-.428.151.084-.027.176-.035.264-.052l-.634.232c-.037.015-.014.065.025.057.017-.003.032.006.044.019l.019.021 1.119-.321.172.029c.009.002.018 0 .026-.004.417-.223.988-.358 1.473-.45.02-.004.039-.018.044-.038s.02-.036.041-.043l.464-.13c.013-.004.024-.003.035.005.024.019.021.057-.007.066l-1.52.453-.5.17c-.077.038-.036.098.047.075l.584-.151c.023.024.003.068.035.061s.042.028.01.038l-.956.298c-.048.018-.103.003-.143-.031l-.023-.019c-.05-.038-.11-.001-.098.058a.54.54 0 0 0 .016.059c.005.016-.003.032-.018.038-.037.015-.014.065.02.058.015-.003.03.005.035.019l.017.04c.021.045.002.099-.045.115l-.104.034c-.155.052-.122.211.041.184l.257-.053c.009-.002.018.003.021.011s.014.014.021.008.016-.019.022-.03.014-.013.024-.016l.58-.145c.117-.018.22-.117.335-.141a.44.44 0 0 1 .087-.008c.151 0 .187.134.05.189-.036.015-.071.034-.1.066s-.009.076.031.094c.011.005.019.015.01.022s-.027.015-.034.022c-.015.014.029.017.05.014.082-.012.177-.058.27-.084.104-.028.113.048.024.106-.018.012-.038.024-.059.031l-.187.076c-.039.017-.09.019-.131.005s-.118.016-.136.044c-.015.019-.018.034-.011.046s.005.025-.006.029c.023.004.041-.002.061-.009a.33.33 0 0 0 .076-.009c.07-.017.132-.059.2-.082l.187-.061c-.024.008-.012.034.012.026l.275-.081c.069-.015.083.046.016.064l-.336.087c-.121.035-.103.135.012.086.077-.033.153-.071.227-.065.015.001.027.012.032.026s.001.036-.012.05c-.037.044.005.102.054.093l.224-.045c.056-.012.12.006.139.06.011.03.016.062.018.096.001.019-.011.035-.028.041l-.024.008c-.046.015-.029.054.017.04.022-.007.046.006.055.027.127.277.439.123.455-.102.012-.061.072-.092.132-.112l.173-.057c-.036.111-.031.258.067.477.009.019.002.041-.018.047s-.034.036-.02.057l.019.029c.022.032.014.077-.021.093-.359.162-.811.183-1.173.326-.118.047-.074.167.051.138.163-.039.321-.103.479-.15.037-.011.042-.009.008.01-.027.015-.003.044.025.032.165-.07.24-.095.457-.166-.034.011-.038-.001-.001-.003.074-.003.13.017.061.093-.029.019-.043.026-.058.032-.307.13-.219.242.107.158l.649-.174c.028-.008.058-.002.082.017.033.026.044.069.029.106-.011.026-.018.05-.024.071a.59.59 0 0 0 .019.285c.007.023.018.047.034.072a.15.15 0 0 0 .022.036c.013.015.011.04-.005.05-.022.013-.008.052.019.05l.022-.001c.033-.002.046.038.017.051a1.14 1.14 0 0 1-.163.059.07.07 0 0 0-.051.053l-.011.055c-.011.055-.051.098-.102.122l-.028.013c-.045.022-.073.065-.071.115.003.083.081.152.165.139.266-.041.504-.102.766-.178.082-.017.158-.049.226-.088.02-.011.046-.01.068-.017s.039-.008.052.002c.031.023.027.073-.009.086l-.02.008c-.054.021-.024.078.035.072l.076-.006c.044-.003.072.046.051.083-.005.01-.014.019-.024.024s-.023.015-.031.023c-.062.059-.09.157-.175.18l-.023.007c-.174.05-.128.226.052.197.284-.046.556-.146.834-.245l.11-.036c.106-.025.251-.079.404-.102.02-.003.027.024.01.034s-.005.024.01.023c.075-.006.149-.039.226-.064.009.017.005.021.001.023l-.153.055c-.015.006-.007.029.008.027s.024.015.012.022c-.147.089-.325.139-.439.187l-.11.036c-.279.084-.559.16-.811.289-.164.084-.078.245.097.182.093-.034.2.025.3.032.008.001.017.001.026 0 .061.014.071.078.033.101l-.067.04c-.053.03-.034.095.026.08l.034-.009c.036-.011.074.025.066.061-.003.015-.014.026-.028.031-.03.013-.05.024-.07.026-.081.009-.164.028-.24.063a4.3 4.3 0 0 0-.727.312c-.069.038-.083.129-.029.19.038.044.098.058.154.046l.03-.006c.05-.009.103.006.144.038l.06.047c.02.015.046.02.069.012l.147-.044c.037-.01.056.033.025.053s-.014.052.018.046c.024-.004.044.017.046.041l.004.032c.008.032.018.059.031.084.04.075.098.17.166.223.02.015.045.031.074.046.038.02.061.06.053.099a.08.08 0 0 1-.049.058l-.623.246c-.311.122-.302.258.025.18l.052-.01c.165.025.049.108-.043.151.002-.006 0-.021-.009-.018l-.389.111c-.031.007-.032.046-.001.044.042-.002.041-.001.002.014l-.45.155c-.12.048-.072.166.053.132.376-.103.74-.347 1.122-.427.037-.008.074.019.078.056l.004.038c.003.024.025.041.049.034s.045.004.052.024c.076.227.174.343.279.398-.071.034-.139.056-.208.078-.037.012-.075.008-.111-.008-.021-.009-.042-.023-.06-.037-.173-.138-.493-.063-.393.22.006.016-.003.034-.019.04-.035.012-.019.051.016.04l.022-.007c.013-.004.027 0 .036.01.028.032.054.068.067.109s-.018.084-.062.1a2.04 2.04 0 0 0-.215.097c-.039.02-.026.099.017.11.024.005.036.011.04.026s.006.039-.007.048c-.06.044-.149.056-.232.075-.12.029-.058.122.057.081l.332-.133c.063-.024.094.032.033.061-.086.041-.178.07-.27.1-.024.008-.017.031.007.024l-.187.061c-.068.022-.14.024-.206.051-.044.018-.089.046-.134.061l-.1.033.069-.021c.028-.007.077.025.102.041.044.013.12-.023.141-.041.034-.029.059-.066.103-.078l.206-.049c.017-.004.035-.004.052-.005.113-.004.159.058.054.095-.088.031-.19.05-.258.091-.019.011-.048.04-.026.042.014.001.041-.006.051-.002-.019.056-.001.108.047.115.038.006.073.002.107-.005.145-.032.209.087.091.171-.026.019-.053.034-.08.045-.1.04-.234.024-.33.072-.181.092-.379.161-.565.239-.006.003-.013.003-.02.002l-.038-.006c-.01-.002-.017.007-.014.016l-.248.126c-.152.078-.065.227.097.172l.113-.04c.044-.016.093.01.106.054l.007.022c.008.028-.005.057-.033.067-.052.018-.034.071.02.059.037-.009.069.006.083.033l.016.027c.032.052.107.047.118-.011l.005-.032c.005-.045.035-.085.08-.098l.995-.343c.029-.008.046.025.019.038s-.028.091-.055.105c-.096.049-.385.146-.564.215-.063.024-.056.085.012.077.16-.019.377-.119.545-.165l1.489-.532c.028-.01.058.011.053.039-.002.012-.012.026-.025.031l-.453.171c-.018.006-.04.002-.057-.008s-.044-.014-.064-.005c-.437.209-.971.437-1.446.506-.01.001-.018.006-.024.013-.04.05-.073.082-.105.112l-1.064.388c-.019.007-.031.025-.03.045s-.005.037-.019.042c-.038.014-.018.071.022.061l.646-.188c-.04.013-.02.06.02.047l.861-.319c.148-.044.172.04.025.087l-.786.271c-.165.072-.175.266-.339.34-.117.052.022.099.144.059l.279-.092c-.097.032-.19.074-.276.114l.359-.106c-.039.013-.102.056-.212.092l-.394.129c.007-.002.016.001.026.004.015.004.032.013.037.027s-.002.029-.016.034l-2.425.76c-.016.005-.024.021-.012.034s.006.038-.012.045c-.549.217.184.01 1.016-.236.21-.062.189-.016-.023.039-.206.053-.13.133.072.069l1.453-.48c.044-.015.113.046.136.087.011.018.022.023.033.023a2.84 2.84 0 0 0 .247-.023c.01-.001.016.016.008.021.153.046.272.013.392-.017.138-.035.224.112.1.178-.053.028-.112.043-.177.044-.104.002-.21.023-.302.064-.083.037-.184.068-.287.101-.043.014-.082.034-.121.056-.184.104-.421.15-.632.23-.174.066-.084.22.096.17l.58-.178c.027-.009.052.024.042.05-.004.011.002.023.012.029.031.018.033.076.002.087-.05.017-.036.058.004.05.374-.079.746-.196 1.119-.31.201-.061.211-.023.015.05a1.88 1.88 0 0 0-.334.159c-.062.038-.039.111.036.103.047-.005.093-.009.137.002.023.005.036.045.028.066s.006.04.025.04c.033 0 .064-.003.094-.011.01-.003.021 0 .03.005.02.013.016.037-.005.044l-.288.096c-.228.077-.196.161.029.076l.124-.047.819-.234-5.005 1.813.85-.267c.047-.015.093-.031.143-.038.013-.018.017-.026.021-.027l.448-.147c.076-.025.155-.037.234-.052.069-.013.13-.033.189-.053l1.74-.582c-.019.006-.049.005-.082.015l2.091-.674c.026-.008.052-.017.082-.015.021.004.023.027.004.035-.048.018-.102.043-.115.071s.014.068-.013.078l-2.193.738c-.053.017-.155.144-.205.169-.776.224-1.624.48-2.338.869-.097.053-.193.149-.092.202.27.142.306-.074.077.107a.56.56 0 0 0-.069.064l-.03.012c.015.006.025.014.026.024.032.294.414.009.613-.05.055-.016.124-.02.173.013.06.041-.346.125-.567.189-.089.026-.169.109-.075.123.257.04.527.078.773.012l.841-.264c.158-.053.207.024.049.079-.184.064-.167.146.022.097l.287-.075-.324.106c-.014.005-.013.029-.014.044l-.171.066c-.059.023-.042.104.023.109.009.001.02 0 .028-.003l.024-.01c.067-.029.15-.032.222-.048.102-.022.24-.095.382-.175a.85.85 0 0 1 .167-.073c.316-.097.65-.168.956-.228.026-.005.047-.022.058-.045s.027-.035.048-.042l.566-.152c.012-.003.026 0 .037.008.028.02.024.064-.008.073l-1.524.456c-.081.024-.066.093.015.072.234-.061.46-.176.704-.209l-.6.201c-.037.012-.015.051.023.039l.072-.024c.057-.019.083.035.028.058-.315.132-.663.223-1.003.32-.193.055-.159.131.03.067.307-.104.614-.201.936-.258-.216.066-.421.146-.623.229-.068.028-.039.09.034.074.065-.014.074.045.01.064l-1.029.286c-.251.073-.198.281.055.215l.883-.225c.107-.017.195-.102.295-.139a.5.5 0 0 1 .148-.027c.156-.008.192.129.05.186a.37.37 0 0 0-.116.071c-.034.032-.013.085.033.101.001.024-.024.034-.037.043-.02.014.026.02.051.017.144-.019.322-.126.476-.125.05 0 .074.042.028.06-.064.026-.058.071.009.053l.888-.261c.026-.008.052-.012.079-.015.166-.014.308-.032.522-.124l.09-.03c-.448.181-.988.257-1.443.398-.081.025-.062.072.021.053.075-.016.093.049.019.069l-.242.062c-.135.034-.104.141.032.109.276-.064.537-.17.814-.248.048-.013.079.056.052.097-.007.011-.02.02-.033.021l-.15.013c-.294.026-.218.169.063.09l1.06-.315c.134-.037.203.101.078.16-.05.016-.073-.067-.124-.084a.16.16 0 0 0-.033-.007c-.011-.001-.023.001-.033.007-.381.203-.764.363-1.154.525l-.351.127.026-.009-.992.363c-.106.038-.084.104.021.063s.127.017.021.055l-.182.062c-.154.051-.132.103.019.045l.841-.304c.017-.005.034.012.029.028s.01.032.026.029c.718-.161 1.494-.61 2.214-.708.103-.014.206-.032.305-.062.21-.065.439-.135.615-.242.09-.055.182-.113.284-.146a.99.99 0 0 1 .132-.032c.223-.04.431-.119.644-.199l.037-.012c.017-.006.041.004.058.012.009.004.013.002.022.002.138-.021.135-.032.017.009l-.139.049c-.138.048-.116.107.023.061-.044.014-.028.057.019.064l.027.005c.063.011.081.099.025.126-.132.064-.266.114-.407.162-.045.016-.031.058.015.046.006-.002.014-.002.021 0 .098.021.175.004.255-.041.019-.011.012-.04-.009-.033l1.435-.506c.011-.003.024.005.024.017.001.017.017.028.033.023l.469-.154c.008-.002.015-.004.023-.005.112-.012.133.035.027.071-.074.025-.139.053-.18.092-.011.01-.022.021-.035.028-.123.064-.355.07-.493.155-.069.043-.13.102-.209.128l-.117.038c-.012.004-.023.013-.026.026-.008.032.025.062.059.056.324-.053.632-.143.933-.244.158-.053.363-.066.512-.138.052-.036.09-.075.139-.092l.303-.097c.08-.025.113.033.035.061a2.3 2.3 0 0 1-.181.055c-.067.018-.056.04.012.029.058-.009.115-.014.166-.011.015.001.019.023.014.036-.034.021-.058.031-.083.04-.184.068-.162.131.027.076.043-.013.077-.011.108-.018a.2.2 0 0 0 .055-.02c.027-.015.053-.031.083-.041l.4-.12c.085-.024.125.041.042.07-.093.032-.197.054-.287.094-.022.01-.002.037.022.035s.024.021.01.034l-.023.025c-.016.018-.007.045.017.052a.31.31 0 0 0 .053.01c.091.01.096.019.01.045l-.235.073c-.025.008-.057.023-.05.048s.069.026.176-.009l.437-.149c.015-.006.035.023.022.033l-.437.156-.019.006c-.088.035-.145.09-.216.123-.26.121-.557.213-.84.327-.295.119-.179.359.115.238.028-.009.052.046.028.062a1.42 1.42 0 0 0-.121.092c-.026.012-.046.018-.057.022.006-.002.023.004.03.002-.022.007-.004.045.02.04.029-.005.047.031.02.041l-1.414.433c-.126.041-.083.17.046.139l.079-.02c.098-.026.103-.022.016.026-.035.02-.065.047-.087.087-.006.011.008.023.021.022.021-.001.151.024.17.019a.24.24 0 0 0 .047-.016c.016-.008.042-.002.049.015l.031.073c.013.028.046.042.076.034l.512-.148c.012-.004.041.023.047.035.313-.055.625-.111.875-.221l.269-.116.171-.069c.138-.058.282-.103.429-.138l.533-.126c.024-.008.03.019.007.027a6.16 6.16 0 0 1-.411.129c-.009.003-.02.004-.03.004a1.27 1.27 0 0 0-.114.011c-.009.001-.016.011-.015.02s-.004.017-.012.02c-.594.195-1.319.433-.916.453-.071.044-.135.09-.182.141-.015.016-.033.029-.054.036l-.138.047c-.053.019-.045.085.012.086a.46.46 0 0 0 .069-.004c.012-.002.023.005.022.017s.011.022.021.019l-.302.121c-.207.085-1.172.23-1.385.299l-.468.166c-.071.028-.058.08.015.058.084-.025.127.045.047.08l-.5.207c-.059.024-.059.053 0 .032.055-.02.088.024.039.053-.063.037-.146.055-.231.071-.209.039-.134.146.068.084l2.134-.728c.028.015.028.059.013.064l-1.596.558 1.4-.459c.032-.01.071-.007.045.013-.05.04-.059.065.003.048l.915-.207c.016-.004.03.002.033.017s-.002.034-.014.043c-.05.034-.08.085.011.105.066.023.133-.032.203-.031.275.002.775-.003.653-.334-.022-.015-.023-.046-.009-.051l.084-.028c.028 0 .044.003.066.008.05.009.1.002.143-.021l.113-.06c.08-.042.173-.055.265-.046.266.028.528.037.766-.082.027-.014.062.005.064.035l.012.031c.014.035.013.088-.023.1l-.43.141c-.085.028-.186-.019-.259-.074l-.031-.022c-.061-.039-.138.004-.125.072.016.082-.011.175-.091.202l-.118.039c-.035.012-.074.007-.11-.006-.189-.07-.391-.008-.587.073a.05.05 0 0 0 .03.095l.045-.01c.057-.012.074.041.02.06s-.036.075.021.059c.309-.087.611-.196.908-.309.031.009.031.024.017.029l-.428.149c-.259.09-.238.144.022.055l.092-.032c.017-.006.036-.002.051.008s.041.019.062.012l1.462-.479c.025-.008.027.004.005.019-.016.011.001.025.02.019l.075-.025c.033-.011.051.006.027.03a.9.9 0 0 1-.11.089c-.007.002-.034-.012-.066-.001l.013-.004c.045-.06.035-.066-.006-.055a.36.36 0 0 0-.076.033c-.043.023-.105.057-.125.081-.009.011.011.017.004.029s-.016.018-.025.021c.026.001-.027.02-.056.023-.02.002-.046.01-.078.021.052-.017.098-.017.15-.017.012 0 .016.019.005.023.379-.113-.012.061-.058.076l.439-.068.027-.003c.072-.016.128-.022.148-.018.025.02.056.02.075.016.068-.017.142-.05.21-.072.019-.006.049.015.07.016s.064-.012.107-.03a1.87 1.87 0 0 0 .36-.314l.056-.071c.01-.012.024-.021.039-.026l.051-.017c.066-.022.13.058.096.116s.044.162.115.138c.122-.042.243-.088.307-.132.007-.005.014-.011.02-.017.261-.278.613-.377.969-.471.093-.024.232-.014.319-.05.054-.022.105-.078.16-.097a1.3 1.3 0 0 0 .18-.075c.016-.008.037-.005.049.009s.028.017.043.012l.488-.16c.051-.017.107.003.161.009.024.003.047-.002.067-.017.01-.008.012-.025.011-.038-.001-.019.013-.036.031-.042l.27-.088c.229-.074.626.122.843.02.161-.076.319-.204.324-.242.008-.077.138-.143.289-.198.041-.015.396.093.436.077.007-.003.014-.009.017-.017.046-.116-.025-.201-.132-.166.055-.018.115-.022.174-.028.252-.026.573-.234.821-.299.008-.002.015.002.018.009.005.014-.018.052-.032.056-.215.054-1.016.345-.75.287l.049-.008c.13-.022.352-.148.513-.143.019-.022.029-.04.046-.045l.185-.061c.014-.005.03.003.037.016s.026.017.038.008c.197-.138.418-.227.646-.305.049-.017.113.097.069.124-.292.097-.566.21-.817.384-.06.051-.14.116-.114.192.024.07.113.134.191.116.103-.034.164-.186.252-.247.081-.058.141-.152.223-.185l.165-.068c.067-.028.147-.022.209-.059.032-.019.067-.041.102-.054l.633-.239c-.103.034-.119.05.002.023.177-.058.27-.048.333-.083-.074.093.163.023.262-.033.016-.009.016-.031-.002-.039-.046-.021-.098-.018-.144-.002-.011.004-.023-.01-.016-.018.05-.027.096-.026.125-.079.007-.013-.001-.029-.014-.036s-.022-.029-.012-.042c.016-.021.032-.038.05-.05s.031-.008.047-.006a.22.22 0 0 0 .191-.072c.038-.016.042-.022.036-.027-.006-.017-.004-.021-.003-.022a.29.29 0 0 0 .082-.047c.019-.018.037-.037.06-.05l.034-.021c.016-.01.035-.014.055-.011.091.015.131-.005.211-.083.009-.009.001-.026-.012-.026s-.016-.014-.006-.019l.381-.166c.007-.003.015-.005.023-.005l.134-.016c-.005-.014-.01-.028-.001-.031l.336-.11c.037-.012.08.002.119.008a.23.23 0 0 0 .18-.066c.005-.005.014-.009.02-.012.012-.005.017-.016.03-.02l1.464-.389c-.052.017-.05.039.012.031.188-.004.394-.129.439-.144-.019.006-.2.066-.157.028a.35.35 0 0 1 .11-.046c.055-.015.133-.022.187-.042l.06-.019c.022-.005.035.016.028.036s-.02.029-.037.034c-.047.015-.055.079-.093.091-.112.034-.257.026-.305.145.016.012.017.019.011.021-.038.013-.015.016.067.001.01-.003.02.009.017.018-.035.1.07.262.174.207.102-.049.189-.36.282-.424.16-.111.318-.232.506-.237.027-.008.033.011.014.021-.096.05.065-.009.172-.036l.026-.002c.13-.005.278.118.197.213a.58.58 0 0 1-.216.137c-.123.054-.074.23.027.144l.027-.025c.118-.101.838-.469.678-.49-.113-.015-.237-.047-.288-.147l-.012-.03c-.005-.012-.021-.017-.034-.013-.022.007-.035-.017-.017-.031.073-.061.171-.103.272-.138.11-.038.098-.066-.013-.031l-.137.04 1.557-.534c.098-.02.154-.039.231-.064-.083.039-.072.047.014.007.074.114.291-.13.419-.172l.067-.022c-.089.021-.117.023-.085.005.139-.092.246-.115.389-.162-.013.004-.018.029-.037.035.235-.089.372-.168.602-.232.073-.024.063-.005.038.014-.012.01-.03.013-.039.026-.035.047.086.095.135.061.068-.046.117-.145.185-.19.032-.021.067-.022.088.011.004.006.012.009.031.003.185-.035.621-.215.458-.127l-.072.035-.076.036c-.037.015-.067.082-.027.077.029-.007.009.012.025.009.111-.021.267-.092.297-.102l.18-.067c.148-.071.28-.17.437-.221.132-.043.273-.075.383-.146a.46.46 0 0 1 .106-.055c-.02.007-.013.021.008.016l.628-.176c.089-.028.115.016.025.04l-.079.02c-.067.017-.057.042.008.019l.022-.008c.048-.017.09.027.071.073-.016.038.02.078.059.061.085-.038.138-.096.209-.13.041-.02.07.019.048.058-.005.01-.016.023-.005.021s.019-.004.041-.011c.162-.053.254-.203.417-.252.053-.017.027-.031.063-.05.019-.011.035-.022.039-.029.14-.199.477-.049.696-.164.108-.057.211-.14.297-.184l.142-.047-.142.047c-.022-.057-.006-.113.052-.132l.16-.052-.071.023.052-.017.045-.015-.013.004.123-.04.123-.04-.013.004.045-.015.052-.017-.071.023.16-.052c.058-.019.122.012.132.072l-.142.047.142-.047c.146-.031.387-.003.53-.088.111-.066.163-.217.293-.238.035-.006.072-.006.111 0a.59.59 0 0 0 .147.007c.024-.002.039-.007.028.013-.002.004.002.007.02.004.18-.042.35 0 .511-.053.071-.023.045-.015.035-.023-.045-.035-.054-.074.001-.082.077-.011.156.002.246-.02.036-.009.038-.054.005-.073-.043-.024-.041-.09.004-.105.062-.021.054-.045.001-.024l-.123.048c-.077.028-.089-.025-.011-.052l.723-.269c-.022.007-.025-.003-.013-.007.16.008.31-.06.461-.11.157-.052.327-.057.49-.088a2.02 2.02 0 0 0 .186-.048c.03-.01.195-.045.296-.092.003-.002.007-.016.009-.019.041-.022-.038-.053-.076-.045l-.074.013c-.313.057.062-.066.098-.067.177-.015.067.024.224-.064.027-.015.072-.03.055-.057s.023-.04.053-.044c.085-.012.199.039.287.038.063-.001.125-.108.063-.122-.013-.003-.027.002-.04.004-.033.005-.06-.004.013-.037.218-.095.383-.102.626-.171-.019.006-.04-.01-.053-.006.149-.049.245-.08.413-.101.033-.003.01.012-.07.046l.067-.022c.128-.042.438.021.442-.11.09-.03.097-.032 0 0a1.76 1.76 0 0 1 .223-.085c.497-.209 1.108-.374 1.579-.506l-.156.052c-.113.038-.099.077.014.039a.95.95 0 0 1 .325-.061c.023.001.03.027.008.034-.012.004-.021.018-.017.03l.011.03c.042.107-.041.203-.119.284-.11.114.703-.028.863-.018l.037.003c.135.006.054-.158-.076-.131-.09.019-.181.036-.268.017-.125-.027-.104-.195-.003-.265.014-.01.036-.022.053-.027.124-.041.3-.1.047-.05.016-.005.029-.012.043-.02l.084-.046c.145-.081.331-.085.514-.091.121-.004.399.199.515.169.118-.018.082-.201-.01-.26-.009-.006-.009-.022.001-.025.037-.012.06-.022.071-.03s-.016-.011-.033-.005c.018-.006.011-.026-.006-.034-.111-.05-.211.022-.312.063-.038.015-.101-.02-.14-.009-.014.004-.036.012-.049.004-.023-.014-.028-.044-.003-.053.018-.007.04-.011.061-.017.055-.014.109-.062.163-.078a1.07 1.07 0 0 1 .12-.029c.056-.007-.121.063-.141.069.045-.015.286-.048.438-.143.014-.005.069-.058.08-.062l1.304-.517c.008-.003.044-.009.053-.009.018.005.032.007.047.008.145.01.267-.144.402-.189l.208-.068c-.019.006.004.032.021.023.036-.019.062-.04.085-.056.127-.043.257-.069.385-.092.006-.001.018.021.013.024.14.032.194.029.259-.038.017-.017.036-.032.061-.035l.042-.004c.022-.001.043.004.065.009a.26.26 0 0 0 .106-.01c.008-.002.007.014.014.017s.015.003.033.002c.09.015.165-.018.217-.066.04-.015.065-.013.093-.005.015.004.031.038.027.053-.002.008.001.019.009.023.065.032.101.002.158-.007.016.004.015.02.005.023-.049.015-.091.043-.112.088-.007.016.006.032.024.03.11-.013.332-.092.241-.126-.009-.003-.018-.003-.026 0 .082-.015.141-.069.328-.13.11-.036.087-.04-.014-.018l.635-.18c.049-.012.104-.006.153-.018.061-.015.107-.061.168-.078l.196-.047c.086-.019.191.017.279.017l.035-.001c.101-.007.225.061.325.049.011-.001.028-.005.037-.011.103-.061.093-.26-.046-.258-.03-.002-.07-.011-.123-.017-.307.009-.6.093-.887.176-.073.004-.103-.12-.046-.138.227-.071.459-.127.709-.136.016-.001.026-.02.023-.036s.005-.022.018-.026l.217-.071c.022-.007.044.013.062.001.136-.091.391-.117.493-.183.309-.141-.539.105-.753.199-.009.004-.065-.015-.068-.024.245-.097.642-.121.853-.257.048-.031.096-.063.152-.082-.113.037-.109.144.013.206.007.004.017.004.024.002.044-.012.237-.299.28-.312.156-.045.303-.071.364-.016.033.032.245.039.422.003.237-.048.405-.433.634-.509l.263-.087c.022-.007.048.008.064.025.007.007.014.008.024.008a.12.12 0 0 0 .05-.014c.058-.031.096-.096.159-.116l.462-.151c.017-.006.029-.02.03-.037s.011-.033.026-.036l.197-.047c.056-.015.135-.002.191-.016.093-.023.193-.112.282-.147.344-.138.686-.274 1.089-.197.08.008.224-.03.361-.074.073-.024.065-.142-.009-.17s-.077-.133-.006-.157l.039-.013a.09.09 0 0 1 .042-.004c.128.021.571.08.677.031.009-.004.017-.009.022-.013.023-.019.007-.042.035-.05.075-.024.162-.034.224-.068.013-.007.032-.016.043-.024.017-.013-.013-.024.004-.038s.062-.04.119-.065c.007-.003.013-.007.019-.011l.39-.205c-.052.017-.471.12-.097-.026l-.078.025c.08-.038.109-.093.193-.121l-.078.025.013-.004-.065.021c.013-.004-.013.004-.019.006-.021.007-.024-.03-.047-.032-.035-.003-.097.005-.141.011-.029.004-.058.009-.085.019-.035.014-.04.024.022.042.009.002.018.002.026-.001-.041.027-.066.038-.097.037l-.12-.006c-.026-.003-.023-.021.002-.029l.087-.028c.019-.006.024-.025.003-.023s-.035-.013-.012-.02l1.479-.485c.016-.005.029-.02.034-.036s.018-.038.039-.045l.119-.038c.259-.083.239-.133-.021-.053l-.499.154c.025-.008.03-.044.056-.051l.829-.259c.053-.02.034-.071-.021-.055s-.077-.034-.029-.057l.07-.032c.063-.029.023-.113-.045-.096-.196.051-.381.121-.476.279-.018.03-.045.056-.08.067l-.119.039c-.081.026-.166-.029-.21-.103-.037-.061-.126-.049-.145.017l-.01.041c-.016.084-.06.172-.144.2l-.442.145c-.034.011-.076-.026-.081-.061l-.013-.035c-.01-.025 0-.061.026-.066.281-.058.486-.237.687-.42.039-.036.086-.064.139-.076.073-.016.154-.025.246-.032.012-.001.023-.003.034-.008.034-.016.056-.031.068-.046s.025-.051.048-.059l.048-.016c.018-.006.036.012.029.029.146.372.598-.001.788-.146.019-.014.04-.025.063-.032.047-.016.078-.031.084-.06.008-.039-.041-.051-.09-.048-.013.001-.026-.007-.032-.019s-.003-.034.012-.041l.839-.366c.055-.021.034-.025-.025-.037-.029-.006-.004-.03.023-.039l1.406-.461c-.553.127-1.09.31-1.621.495-.014.005-.042-.028-.042-.043l2.193-.703c.186-.064.168-.193-.007-.108-.088.043-.174.086-.259.095-.054.006-.056-.046-.006-.064s.036-.04-.021-.026l-.528.126c-.079.018-.1-.061-.024-.088.067-.024.046-.069-.022-.052l-.528.158c-.207.069-.967.496-1.18.549l-.373.096c.018-.006.023-.015.015-.022s-.01-.027.001-.034a.43.43 0 0 0 .053-.036c.043-.034.005-.087-.048-.07l-.146.044a.14.14 0 0 1-.057.001c-.073-.012-.154-.004-.237.013.295-.268-.433-.042-1.022.162-.011.004-.023.001-.029-.01s-.014-.01-.021-.008c-.037.014-.065.034-.087.052-.017.013-.036.023-.056.03l-.46.151c.045-.015.079-.051.123-.07l.64-.272c.141-.046.287-.079.436-.116l.213-.044c.284-.056.574-.2.862-.335.003-.023.006-.061.019-.065l.487-.179c.034-.013.05-.05.038-.085l-.022-.064c-.006-.018.011-.037.031-.04s.044-.01.064-.018.08-.1.098-.111c.013-.007.013-.026-.001-.032-.048-.019-.093-.019-.136-.01-.096.021-.094.012-.003-.024l.085-.034c.122-.052.064-.18-.062-.139l-1.71.577c.116-.038.226-.091.328-.144.005-.003-.001-.029-.007-.03-.005-.017-.008-.021-.011-.02l-.039.013c-.065-.002-.119 0-.171.003-.026.002-.044-.055-.022-.066l.038-.01c.299-.076.223-.323-.075-.247-.349.088-.693.215-1.03.262l-.114.008a.17.17 0 0 0-.04.008c-.155.028-.303.076-.44.133-.026.001-.031-.034-.013-.04l.444-.136c.114-.037.162-.076.138-.1-.016-.016-.042-.012-.063-.005l-.244.081c-.072.024-.078.01-.022-.04.014-.013.028-.027.04-.044s0-.036-.02-.04l-.027-.005c-.019-.004-.033-.03-.017-.041s.014-.043-.006-.039c-.109.022-.211.074-.313.105-.084.025-.098-.053-.016-.083l.424-.15c.017-.006.034-.009.052-.012a.39.39 0 0 0 .09-.028c.018-.009.035-.018.054-.024.206-.068.177-.134-.033-.077l-.053.014c-.026.009-.04-.028-.021-.046s.036-.03.056-.044c.076-.05.069-.077-.018-.045l-.06.021c-.085.029-.1-.032-.015-.061l.286-.096a.23.23 0 0 1 .11-.01c.021.003.052.004.072 0l.042-.01c.12-.031.229-.117.346-.155.328-.107.659-.217.97-.377.026-.014.029-.045.005-.064-.014-.011-.034-.018-.05-.013l-.134.044c-.063.021-.133.011-.2.01-.174-.002-.368.148-.514.172-.015.003-.031.001-.047-.001a.53.53 0 0 0-.199.033c-.107.034-.128-.022-.028-.072l.499-.165c.014-.005.021-.019.01-.029s-.01-.03.006-.036c.452-.178.964-.29 1.448-.438-.021.007-.006.033.016.03.095-.012.163-.041.223-.113.005-.006.013-.012.021-.014.052-.017.029-.069-.023-.053l-.517.132c-.032.006-.055-.033-.035-.057.036-.043.074-.089.119-.128.007-.006-.002-.024-.011-.023.159-.067.324-.117.487-.169.09-.028.066-.084-.024-.056l-.69.212c-.142.043-.141.048-.007-.013.019-.01.025-.012.028-.023.004-.017.018-.033.035-.038l.039-.013c.221-.062.436-.122.636-.22a.95.95 0 0 1 .125-.052c.102-.033.212-.042.32-.052.197-.018.406-.088.602-.156a2.45 2.45 0 0 0 .356-.166c.62-.334 1.513-.441 2.164-.717.017-.007.023-.026.005-.035s-.02-.034-.002-.041c.265-.095.546-.171.825-.248.144-.04.127-.087-.015-.042l-.136.042c-.106.031-.128-.023-.021-.052s.078-.092-.027-.061l-1.032.3.026-.009c-.12.028-.243.068-.359.106-.41.112-.82.201-1.255.265-.011.002-.022.006-.03.014s-.016.017-.021.024c-.028.043.013.121-.037.137-.14.028-.182-.119-.05-.169l1.035-.372c.27-.101.229-.255-.014-.105l-.123.075c-.011.007-.027.007-.04.003-.049-.016-.073-.088-.026-.105l.787-.276c.125-.053.077-.146-.048-.095l-.216.086c-.071.026-.102-.036-.034-.067.077-.034.058-.086-.021-.059-.45.156-.92.411-1.393.532l.09-.03c.238-.056.356-.124.496-.212a.29.29 0 0 1 .057-.028l.86-.315c.059-.022.033-.055-.029-.042-.041.009-.049-.032-.018-.059.119-.1.35-.118.477-.195.014-.008.038-.019.03-.033-.005-.008-.038.001-.06.002-.014.001-.015-.012-.008-.024.022-.036.004-.084-.04-.089-.056-.006-.107.003-.157.017-.15.043-.215-.088-.089-.174.044-.03.09-.055.135-.068.107-.031.238-.018.335-.068.249-.128.522-.218.788-.323.249-.098.148-.286-.103-.192l-.962.366c-.063.022-.1-.029-.04-.057.068-.031.05-.099-.023-.08l-.628.182c.288-.143.593-.246.902-.344.191-.061.164-.139-.023-.069l-1.041.346c-.052.012-.068-.041-.017-.058l.116-.038c.03-.01.02-.052-.01-.043-.173.08-.384.137-.601.197.209-.12.464-.163.687-.252.078-.031.041-.093-.038-.065l-1.495.533c-.036.013-.072-.021-.058-.056.005-.012.014-.019.027-.023l.54-.209c.022-.009.047-.007.07.003a.09.09 0 0 0 .073.002l.882-.373a1.02 1.02 0 0 1 .213-.055c.178-.026.348-.05.434-.101.043-.025.079-.066.128-.077.018-.004.036-.006.055-.007s.036-.011.046-.022c.036-.037-.003-.096-.055-.084l-.174.048c-.026-.016-.039-.033-.054-.028l-.328.107.238-.095c.173-.069.129-.142-.051-.089-.152.044-.168-.044-.018-.093l.868-.299c.232-.091.415-.28.588-.452.066-.065-.054-.086-.142-.053-.208.077-.56.238-.566.188-.007-.06.071-.1.128-.121.197-.074.683-.069.505-.313-.006-.008-.003-.02.006-.023-.011-.013-.018-.01-.024-.006l-.148-.006c-.289.011-.25.103-.027-.066a.21.21 0 0 0 .025-.022c.077-.08-.073-.157-.186-.14-.818.122-1.653.407-2.391.682-.057.011-.246-.022-.29-.008l-2.2.703c-.027.008-.042-.037-.067-.051-.039-.012-.15.013-.201.03.034-.032.055-.051.083-.064.021-.01.042-.023.065-.031l2.048-.683c-.019.006-.012.019.007.014l1.668-.54c.071-.023.147-.048.224-.09a.78.78 0 0 1 .131-.06l.485-.159c.008-.003.015-.002.02.005.058-.007.099-.021.138-.04.015-.007.03-.014.045-.019l.874-.287c-.019.006-.036 0-.056.007l-5.124 1.507zm-1.219 6.656c-.012.023-.027.03-.043.037-.055.025-.07-.002-.011-.02l.054-.017zM43.866 39.553c-.01.004-.034.018-.043.018-.056.001-.116-.001-.173-.001-.008 0-.013-.016-.008-.022l.129-.04c.029-.006.103.014.132.009s-.015.017-.037.035zm-1.628.535c-.009.001-.084.016-.063-.002.03-.016.085-.075.108-.086a1.01 1.01 0 0 1 .119-.047c.02-.007.026.012.01.024l-.128.098c-.004.003-.041.014-.046.013zm-25.214 5.371a.72.72 0 0 1 .2-.075c.023-.005.03.017.007.024-.069.021-.137.038-.207.051zm-6.677-5.774c-.082.028-.078.026.004-.001zm1.478-5.466c.015-.009.018-.009.02-.009.014.002.029-.008.029-.022.002-.159.011-.182.107-.202.016-.005.034-.007.05-.006s.037.009.053.019l.022.015c.073.05.059.153-.023.178l-.224.066c-.018.005-.044-.019-.036-.035zm.072-.746c-.058.066-.128.099-.204.113.071-.023.136-.079.203-.112zm-.608-1.564c-.088.009-.166.012-.237.035a.68.68 0 0 1 .229-.046zm-.288-.438c-.098.027-.122.012-.234-.106-.008-.008-.019-.011-.027-.003-.013.017-.021.02-.028.015s-.012-.03.001-.034l.241-.091a.1.1 0 0 1 .132.117l-.01.037c-.004.016-.017.029-.032.038s-.023.017-.033.026zM5.58 28.029c.045-.013.076.017.031.028-.038.01-.074-.015-.037-.027zm1.369-8.344c.012-.023.027-.03.043-.037.055-.025.07.002.011.02l-.054.017zM30.152 9.171c.01-.004.034-.018.043-.018l.173.001c.008 0 .013.016.008.022l-.129.04c-.029.006-.103-.014-.132-.009s.015-.017.037-.035zm1.628-.535c.009-.001.084-.016.063.002-.03.016-.085.075-.108.086a1.01 1.01 0 0 1-.119.047c-.02.007-.026-.012-.009-.024l.128-.098c.004-.003.041-.014.046-.013zm25.214-5.371a.72.72 0 0 1-.2.075c-.023.005-.03-.018-.007-.024a1.79 1.79 0 0 1 .207-.051zm6.677 5.774c.082-.028.078-.026-.004.001zm-1.478 5.466c-.015.009-.017.009-.02.009-.014-.002-.029.008-.029.022-.002.159-.011.182-.106.202-.016.005-.034.007-.05.006s-.037-.009-.053-.019l-.022-.015c-.073-.049-.059-.153.023-.178l.224-.066c.018-.005.044.019.036.035zm-.072.746c.058-.066.127-.098.204-.113-.071.023-.136.079-.203.112zm.608 1.564c.088-.009.166-.012.237-.035-.073.024-.146.048-.229.046zm.288.438c.098-.027.122-.012.234.106.007.008.019.011.026.003.013-.017.021-.02.028-.015s.012.03-.001.034l-.241.091a.1.1 0 0 1-.132-.117l.01-.037c.004-.016.017-.029.032-.038s.024-.017.033-.026zm5.421 3.442c-.045.013-.077-.017-.031-.028.038-.01.074.015.037.027zm-3.269-1.763l.04-.013c-.011.015-.022.019-.037.024l-.003-.011zm-2.579-6.733l-.04.013c.011-.015.022-.019.037-.024l.003.011zM8.844 29.817l-.04.013c.011-.015.022-.019.037-.024l.003.011zm2.579 6.733l.04-.013c-.011.015-.022.019-.037.024l-.003-.011zm57.224-14.385l-.834.27c.015-.005-.001-.023-.016-.018l-.027.008c-.039.011-.056-.031-.019-.047.262-.11.552-.16.818-.237.007-.002.014-.001.02.002l.054.025zm-.343-.132a.32.32 0 0 1 .079-.006c.069.005.061.086-.003.107-.415.059-.849.342-1.26.394-.014.002-.029.004-.04.012a.2.2 0 0 0-.034.028c-.035.014-.048-.018-.022-.029l1.286-.509-.007.002zm-.405-.178c.239-.078.451-.171.662-.263.031-.01.049.045.019.057-.222.082-.448.154-.681.207zm.803-.463c-.011.004-.017.012-.02.019l-.008.02c-.005.019-.016.037-.036.042-.047.012-.056-.038-.01-.053l.072-.023zm-2.451-1.369c.016-.002.058-.016.086-.025-.02.018-.056.029-.082.021zm-.258-.945c-.03.005-.029-.028-.002-.041.041-.02.056.029.011.039zm1.739.127c.035.088.004.174-.067.197l-.194.064c-.011.004-.023.002-.027-.01s-.019-.021-.03-.018c-.059.017-.075-.029-.035-.045.05-.021.037-.057-.009-.042l-.256.079c-.076.019-.09-.044-.015-.066l.612-.173c.01-.003.02.004.021.014zm-1.656-.3c-.041.019-.084.033-.121.045l-.751.223c.006-.002.01-.021.013-.035-.003-.015 0-.027.009-.03.272-.087.574-.131.842-.207zm-.137-.202h-.002c-.131.03-.269.108-.415.154-.034.011-.041-.021-.017-.045.116-.198.309-.056.433-.109zm-.539-.007c-.02.006-.042-.008-.041-.029.002-.032.012-.041.025-.042.039-.002.049.06.017.07zm-.29-.135l.071-.023-.071.023zm-.341-.854c0-.018.003-.024.009-.024.013.001.014.016.003.02zm-.916-.695c.001.03-.006.087.011.129.011.028-.003.059-.032.068l-.17.056c-.026.009-.053-.004-.065-.028-.017-.035-.015-.095.022-.107l.049-.016c.007-.002.013-.005.018-.009.016-.012.03-.024.044-.038s.034-.03.056-.037l.058-.019zm-.894-.397c-.048.025-.075-.026-.028-.052s.082.021.035.048zm-.521-1.282c-.056.008-.068-.051-.013-.061.065-.01.072.053.013.061zm.414-.901c-.03.015-.053.023-.077.031-.014.005-.029.007-.044.007s-.033-.002-.05-.004-.043-.001-.062.008a.38.38 0 0 1-.04.016c-.038.013-.073-.03-.08-.07-.005-.033.009-.065.041-.076l.159-.052c.029-.009.061.006.072.034.015.038.047.071.077.095zm.28-1.075c-.011.008-.019.015-.026.023.001-.015.012-.018.029-.024l-.003.001zm-.383-.84l.071-.023-.071.023zm.167-.221c-.013.008-.022.013-.032.002-.017-.019-.02-.06.004-.068.047-.015.078.03.047.052l-.019.013zm.358-.376c-.125.03-.172.257-.388.18-.062.001-.082-.032-.039-.048.146-.054.309-.077.427-.132zm-.845.093l-.008-.02c-.014-.011-.013-.03-.001-.034l.698-.252.123-.04-.816.337.004.01zm.673-.386c-.037.007-.063-.023-.03-.038.058-.022.08.029.03.038zm1.165-1.304c.006.02.007.029.009.038.013.069-.015.145-.082.17l-.555.211c-.061.022-.092-.033-.034-.06.107-.05.224-.085.339-.123.033-.011.02-.042-.014-.034-.042.01-.063-.041-.032-.052.014-.005.019-.016.017-.024-.003-.014.003-.03.017-.034l.309-.101c.009-.003.02 0 .026.008zm-1.574.35c-.015.016-.023.019-.032.022-.018.006-.024-.003-.006-.009.01-.004.02-.008.027-.014zm.588-2.339c.044-.047.095-.077.151-.105.021-.011.057-.006.077.008.016.008.018.023.008.026l-.227.074zm-.007-.233c.051-.014.077.045.027.061l-.067.015c-.067.016-.089-.04-.023-.059l.063-.018zm-.48-.118l-1.586.416a1.6 1.6 0 0 0 .221-.094c.007-.003.013-.006.02-.008.039-.007.08-.01.114-.028.35-.19.862-.218 1.199-.401.082-.029.145.03.092.074-.019.016-.042.03-.067.042l.006-.002zm.144-.229l-.747.272c-.029.009-.045-.034-.017-.047-.015.005-.014-.018.001-.023l.759-.249c.01-.003.022.012.018.021s-.007.017-.009.026zm.294-.69c-.016.004-.032-.024-.018-.034.183-.048.34-.129.513-.185.086-.028.105.044.019.071l-.514.148zm1.038-1.796c-.111.054-.212.099-.294.112-.04.007-.081.011-.12.023l.413-.136zm-.908-1.065c.044-.021.059.027.011.039-.041.008-.041-.025-.011-.039zm-.914-.098c-.083.039-.17.068-.257.096-.014-.005-.016-.018-.008-.02l.265-.076zm1.339-.915l-.707.317-1.155.344 1.859-.655zm-2.492.673c-.045.14-.172-.002-.019-.011.013-.001.021.002.019.011zm-4.597.919c.039-.013.075-.017.111-.02.063-.005.086.096.027.116l-.298.107c.027-.095.183-.089.162-.2zm-.486-.248l-.177.043c-.02.006-.028-.009-.007-.015a1.72 1.72 0 0 1 .183-.039zm-.744.101c.044-.037.14-.034.236-.066l-.013.004c-.07.023-.145.048-.222.051l-.001.01zm1.014-1.005l-.57.181c.039-.013.075-.036.114-.048l.453-.126zm.379-.988c.012-.007.025-.011.039-.012.086-.008.088-.004.005.017l-.144.034a.62.62 0 0 0 .101-.04zm.353-1.006c.025-.008.04.03.03.053-.209.074-.397.136-.599.18-.026-.006-.027-.027-.012-.033l.581-.2zm-2.761.234c.013.014.041.059.012.09-.107.015-.213.072-.314.106l-.019.006c-.018.006-.025-.021-.01-.03.033-.021.058-.045.113-.082.003-.003-.022.006-.086.027s-.108.072-.167.1c-.013.005-.025-.002-.035-.009s-.006-.017 0-.023c.012-.012.093-.085.11-.089l.395-.114zm.78-.392c-.006.007-.008.017-.01.024l-1.221.44c-.007.002-.015.004-.021 0s-.029-.02-.02-.023l1.27-.437zm-1.72.037l-.039.013.039-.013zM45.159 4.09c.005.005.017.012.03.02s.013.026 0 .032l-.087.042c-.058.03-.063.027-.006-.005.023-.013.042-.026.051-.038s.008-.034.014-.048zm-.403.088c.005-.017.018-.031.036-.037l.075-.024c.026-.009.043.022.05.049-.001.043-.034.083-.078.118-.061.049-.113-.015-.087-.089zm-5.37 1.701c.004.017.001.023-.005.025l-.003.001c.006-.002.008-.012.011-.023zm-2.283.972c.015-.011.043-.022.055-.032.011.001.018.022.013.025-.051.039-.117.052-.181.073.025-.008.061-.041.11-.059zm-2.677.832c.157-.057.025.009-.02.024l.026-.008c-.024.006-.025-.003-.016-.006zm-1.629.341c.066-.045.146-.015.098.048-.087.114-.248.071-.136-.02l.037-.028zm.374.178c.014-.005.027.011.014.019-.072.001-.323.063-.245.116l-.368.121.007-.002c.175-.143.397-.181.592-.254zm-.61.191c-.01.051-.053.057-.124.09.01.01.012.016.006.018l-.366.13c-.066.021-.112-.043-.054-.078.147-.091.359-.076.524-.142.008-.003.013-.01.014-.017zm-1.209.373l-.019.006.019-.006zm-.195.064c.014-.005.03-.014.03.001 0 .009-.018.019-.027.021l-.213.07c-.065.021-.146.036-.226.074-.029.009-.005-.021.023-.031l.124-.044a1.17 1.17 0 0 1 .14-.046l.149-.045zm-.631.207l.019-.006-.019.006zm.062-.066l-.071.023.071-.023zm-.573.304c-.166.087-.369.132-.552.192.023-.008.015-.026-.008-.02l-.044.01c-.033.007-.032-.026-.001-.037.2-.072.376-.241.604-.146zm-1.153.115c-.083-.018-.04-.085.044-.088h.054c.143.007.044.119-.097.088zm.543.096l-.039.013.006-.002-.094.031c-.115.038-.417.078-.523.134l-.019.009c-.03.009-.033-.019-.003-.029.211-.067.42-.173.672-.156zm-2.006.48c.013.001.025-.003.034-.006-.047.027-.186.073-.042.003zm-2.713.928c.008-.001.034-.009.058-.01.008 0 .015-.001.022-.003.047-.013.09-.007.12-.017-.06.02-.131.043-.198.047zm-2.352.588h.002-.002zm-5.403 1.783c.018-.006.037-.003.053.007.087.052.091.131.01.129-.058-.002-.112-.013-.137-.038-.019-.031-.027-.065-.001-.074l.075-.024zm-.313.172c.006.01.026.028.045.031s.046-.002.084-.007c.062-.009.061.003-.001.012l-.103.018c-.017.004-.03-.015-.025-.03a.06.06 0 0 0 .003-.022zm-8.249 2.865l.039-.013-.039.013zm-1.326.988c-.021-.012-.02-.018-.017-.019l1.272-.396c.01-.003.007.02.007.03a12.15 12.15 0 0 1-1.262.384zm1.31-.378c-.03.033 0 .04.035.045.017.002.024.021.018.036-.003.007-.008.012-.016.014a.25.25 0 0 1-.059.013c-.022.001-.045-.006-.067-.006-.012 0-.032.002-.065.009l-.087.028.145-.005c.024-.003.037.026.015.034l-.019.006-.241.069c-.047.018-.111.034-.122-.014-.005-.028-.013-.058-.029-.053l.483-.18zM6.18 18.36c.013-.004.025.012.019.025l-.583.219c-.021-.008-.031-.059-.018-.063l.581-.181zm.191.821h-.001a.62.62 0 0 0 .164-.072c.023-.008.026.003.008.01l-.17.062zm1.665.281c.03-.003.034.009.021.015-.166.072-.34.127-.525.167l.497-.185zm.755.477c.019-.012.034-.018.048-.025.049-.023.05-.015.001.009l-.033.016zm-.106.152c-.12.031-.22.064-.313.117.157-.085.22-.105.309-.114zm-.507.57c.055.104.177.007.266.053-.104.045-.207.079-.311.112-.067.021-.122-.077-.063-.114.033-.021.066-.04.101-.057zm-4.182 1.952c.127-.075.119.103-.01.022-.008-.006-.003-.014.01-.022zm-2.413.942l1.898-.571-1.131.405a4.78 4.78 0 0 1-.762.159zm1.941-.155l-.268.095.253-.104zm-.92.704c.039-.008.065.022.029.038-.06.023-.082-.027-.029-.038zm.398 1.214c-.037.05-.111.08-.203.1-.025.005-.034-.024-.011-.033a1.62 1.62 0 0 1 .214-.067zm1.318 1.064c-.117.043-.155-.031-.034-.064l.405-.12c.026-.009.035.029.009.038l-.381.146zm1.009.178l.834-.27c-.015.005.001.023.016.018l.027-.008c.039-.011.056.031.019.046-.262.11-.552.16-.818.237-.007.002-.014.001-.02-.002l-.054-.025zm.343.132a.32.32 0 0 1-.079.006c-.069-.005-.061-.086.003-.107.415-.059.849-.342 1.26-.394.014-.002.029-.004.04-.012s.024-.018.034-.028c.035-.014.048.019.022.029l-1.286.509.006-.002zm.405.178c-.239.078-.451.171-.662.263-.031.01-.049-.045-.019-.057.222-.082.448-.154.681-.207zm-.803.463c.011-.004.017-.012.02-.019l.008-.02c.005-.019.016-.038.036-.042.047-.012.056.038.01.053l-.072.023zm2.451 1.369c-.015.002-.058.016-.086.025.02-.018.056-.029.082-.021zm.258.945c.03-.005.029.028.002.041-.041.02-.056-.029-.011-.039zm-1.739-.127c-.035-.088-.004-.174.067-.197l.194-.064c.011-.004.023-.002.027.01s.019.021.03.018c.059-.017.075.029.035.046-.05.021-.037.057.009.042l.256-.079c.076-.019.09.044.015.066l-.612.173c-.01.003-.02-.004-.021-.015zm1.662.298c.041-.019.084-.033.121-.045l.751-.223c-.006.002-.01.021-.013.034.003.015 0 .027-.009.03-.272.087-.574.131-.842.207zm.137.202h.002c.131-.03.269-.108.415-.154.034-.011.041.021.016.045-.116.198-.309.056-.433.109zm.539.007c.02-.006.042.008.041.029-.002.032-.012.041-.024.042-.039.002-.049-.06-.017-.07zm.29.135l-.071.023.071-.023zm.341.854c0 .018-.003.024-.009.024-.013-.001-.014-.016-.003-.02zm.916.695c-.001-.03.006-.087-.011-.129-.011-.028.003-.059.032-.068l.17-.056c.026-.009.053.004.065.028.018.035.015.095-.022.107l-.049.016c-.006.002-.013.005-.018.009-.016.012-.03.024-.044.038s-.034.03-.056.037l-.058.019zm.894.397c.048-.025.075.026.028.052s-.082-.021-.035-.048zm.521 1.282c.056-.008.068.051.013.061-.065.01-.072-.053-.013-.061zm-.414.901c.03-.015.053-.023.077-.031.014-.005.029-.007.044-.007s.033.002.05.004.043.001.062-.008a.38.38 0 0 1 .04-.016c.038-.013.073.03.08.07.005.033-.009.065-.041.076l-.159.052c-.029.009-.061-.006-.072-.034-.015-.038-.047-.071-.077-.095zm-.28 1.075c.011-.008.019-.015.026-.023-.001.015-.013.019-.029.024l.003-.001zm.383.84l-.071.023.071-.023zm-.167.221c.013-.008.022-.013.032-.002.017.019.02.06-.004.068-.047.015-.078-.029-.047-.052l.019-.013zm-.357.376c.125-.03.172-.257.388-.18.062-.001.082.032.039.048-.146.054-.309.077-.427.132zm.845-.093l.008.02c.014.011.013.03.001.034l-.698.252-.123.04.816-.336-.004-.01zm-.673.386c.037-.007.063.023.03.038-.058.022-.08-.029-.03-.038zm-1.165 1.304c-.006-.02-.007-.029-.009-.038-.013-.069.015-.145.082-.17l.555-.211c.061-.022.092.032.034.06-.107.05-.224.085-.338.123-.033.011-.02.042.014.034.042-.01.063.041.032.052-.014.005-.018.016-.017.023.003.014-.003.03-.017.034l-.309.101c-.009.003-.02 0-.026-.008zm1.574-.35c.014-.016.023-.019.032-.022.018-.006.024.003.006.009-.01.004-.02.008-.027.014zm-.588 2.339c-.044.047-.095.077-.151.105-.021.011-.057.006-.077-.008-.016-.008-.018-.023-.008-.026l.227-.075zm.007.233c-.051.014-.077-.045-.027-.061l.067-.015c.067-.016.089.04.023.059l-.063.018zm.48.117l1.586-.416a1.59 1.59 0 0 0-.221.094c-.007.003-.013.006-.02.008-.039.007-.08.01-.114.028-.35.19-.862.218-1.199.401-.082.029-.145-.03-.092-.074.019-.016.042-.03.067-.043l-.006.002zm-.144.229l.747-.272c.029-.009.045.034.017.047.015-.005.014.018-.001.023l-.759.249c-.01.003-.022-.011-.018-.021s.007-.017.009-.026zm-.294.69c.016-.004.032.024.018.034-.183.048-.34.129-.513.185-.086.028-.105-.044-.019-.071l.514-.148zm-1.038 1.796c.111-.054.212-.098.294-.112.04-.007.081-.011.12-.023l-.413.136zm.908 1.065c-.044.021-.059-.027-.011-.039.041-.008.04.025.011.039zm.914.098c.083-.039.17-.068.257-.096.014.005.016.018.008.02l-.264.076zm-1.339.915l.707-.318 1.155-.344-1.859.655zm2.492-.673c.045-.14.172.002.019.011-.013.001-.021-.002-.019-.011zm4.597-.919c-.038.013-.075.017-.111.02-.063.005-.086-.096-.027-.116l.298-.107c-.027.095-.183.089-.162.2zm.486.248l.177-.043c.02-.006.027.009.007.015-.046.013-.103.026-.183.039zm.744-.101c-.044.037-.14.034-.237.066l.013-.004a.86.86 0 0 1 .222-.051l.001-.01zm-1.014 1.005l.57-.181c-.039.013-.075.036-.114.048l-.453.127zm-.379.988a.1.1 0 0 1-.039.012c-.086.008-.087.004-.005-.017l.144-.034c-.032.011-.069.023-.101.04zm-.353 1.006c-.025.008-.04-.03-.03-.053a4.84 4.84 0 0 1 .599-.18c.026.006.027.028.012.033l-.581.2zm2.761-.233c-.013-.014-.041-.059-.012-.09.107-.016.213-.072.314-.106l.019-.006c.018-.006.025.021.01.03-.033.021-.058.045-.113.082a.67.67 0 0 0 .086-.027c.063-.021.108-.072.167-.1.013-.005.025.002.035.009s.006.017 0 .023c-.012.012-.094.085-.11.089l-.395.114zm-.78.392c.006-.007.008-.017.01-.024l1.221-.44c.007-.002.015-.004.021 0s.029.02.02.023l-1.271.437zm1.72-.037l.039-.013-.039.013zm8.354-2.577c-.005-.005-.017-.012-.03-.02s-.013-.026 0-.032l.087-.042c.058-.03.063-.027.006.005-.023.013-.042.026-.051.038s-.008.034-.014.048zm.403-.088c-.005.017-.018.031-.036.036l-.075.024c-.026.009-.043-.022-.05-.049.001-.043.035-.083.079-.118.061-.049.113.015.087.089zm5.37-1.701c-.004-.017-.001-.023.005-.025l.003-.001c-.006.002-.008.012-.011.023zm2.282-.972c-.015.011-.043.021-.055.032-.011-.001-.018-.022-.013-.025.051-.039.117-.052.181-.073-.025.008-.061.041-.11.059zm2.677-.832c-.157.056-.025-.009.02-.024l-.026.008c.025-.006.025.004.016.006zm1.629-.341c-.066.045-.146.015-.098-.048.087-.114.248-.071.136.02l-.037.028zm-.374-.178c-.014.005-.027-.011-.014-.019.072-.001.323-.063.245-.116l.368-.121-.006.002c-.175.143-.397.18-.593.254zm.61-.191c.01-.051.053-.057.124-.09-.01-.01-.012-.016-.006-.018l.366-.13c.066-.021.112.043.054.078-.147.091-.359.076-.524.142-.008.003-.013.01-.014.017zm1.209-.373l.019-.006-.019.006zm.195-.064c-.014.005-.029.014-.03-.001 0-.009.019-.019.027-.022l.213-.07c.065-.021.146-.036.226-.074.029-.009.005.021-.023.031l-.124.044a1.15 1.15 0 0 1-.14.046l-.149.045zm.631-.207l-.019.006.019-.006zm-.062.066l.071-.023-.071.023zm.573-.304c.166-.087.369-.131.553-.192-.023.008-.015.026.008.02l.044-.01c.033-.007.032.026.001.037-.2.072-.376.241-.604.146zm1.154-.115c.083.018.04.085-.044.088a.6.6 0 0 1-.054 0c-.143-.007-.044-.118.097-.088zm-.502-.094c.022-.023.054-.033.085-.043.115-.038.417-.078.523-.134l.019-.009c.03-.009.033.019.003.028-.199.063-.397.161-.63.158zm1.964-.481c-.013-.001-.025.003-.034.006.047-.027.187-.073.042-.003zm2.713-.928c-.008.001-.034.009-.058.01-.008 0-.015.001-.022.003-.047.013-.09.007-.12.017.06-.02.131-.043.198-.047zm2.352-.588l-.002.001.002-.001zm5.403-1.783c-.017.006-.037.003-.053-.007-.087-.052-.091-.131-.01-.129.058.002.112.013.137.038.018.031.027.065 0 .074l-.075.024zm.313-.172c-.006-.01-.026-.028-.045-.031s-.046.002-.084.007c-.062.009-.061-.003.001-.012l.103-.018c.017-.004.03.015.025.03-.002.007-.004.014-.003.022zm8.249-2.865l-.039.013.039-.013zm1.326-.988c.02.012.02.018.017.019l-1.272.396c-.01.003-.007-.02-.007-.03a12.15 12.15 0 0 1 1.261-.384zm-1.31.378c.03-.033 0-.04-.035-.045-.017-.002-.024-.021-.018-.036.003-.007.008-.012.016-.014a.25.25 0 0 1 .059-.014c.022-.001.045.006.067.006.012 0 .032-.002.065-.009l.087-.028-.145.005c-.024.002-.037-.026-.015-.034l.019-.006.241-.069c.047-.018.111-.034.122.014.005.028.013.058.029.053l-.483.18zm2.171-1.45c-.014.004-.025-.012-.019-.025l.583-.219c.021.008.031.059.018.063l-.581.181zm-.191-.821h.001a.62.62 0 0 0-.164.072c-.023.008-.026-.003-.008-.01l.17-.062zm-1.665-.281c-.03.003-.034-.009-.021-.015.166-.072.34-.127.525-.167l-.497.185zm-.755-.477c-.019.012-.034.019-.048.025-.049.023-.05.015-.001-.009l.033-.016zm.106-.152c.12-.031.22-.065.313-.117-.157.085-.219.105-.308.113zm.507-.57c-.055-.104-.177-.007-.265-.053a3.19 3.19 0 0 1 .311-.112c.067-.021.122.077.063.114l-.101.056zm4.182-1.952c-.127.075-.119-.103.01-.022.008.006.003.014-.01.022zm2.413-.942l-1.897.571 1.132-.405c.247-.07.499-.129.762-.159zm-1.94.155l.268-.095-.253.104zm.92-.704c-.039.008-.065-.022-.029-.038.06-.023.082.027.029.038zm-.398-1.214c.037-.05.111-.08.203-.1.025-.005.034.024.011.033-.07.027-.141.05-.214.067zm-1.319-1.064c.118-.043.155.031.034.064l-.405.12c-.026.009-.035-.029-.009-.038l.38-.146z" fill="#45aaee" fill-opacity=".2"/></svg>